<svg width="438" height="60" viewBox="0 0 438 60" fill="none" xmlns="http://www.w3.org/2000/svg">
<path d="M44.1443 3.59787C40.8656 3.73974 35.1249 6.81235 35.1249 15.7845C35.1249 21.3567 38.9685 27.2141 42.1624 26.3675C42.405 26.3032 42.5895 26.165 42.7337 25.9678C41.1959 25.1185 40.2243 23.8156 40.2243 22.0616C40.2243 19.7944 41.7394 19.3612 43.9043 18.7422C44.6823 18.5198 45.5442 18.2734 46.4498 17.9092C44.941 17.0887 44.4092 15.7943 46.1495 14.777C45.5523 13.1739 44.4544 12.4769 43.5551 11.906C42.7591 11.4007 42.1187 10.9942 42.1187 10.1454C42.1187 8.20613 44.1788 5.52975 46.5969 4.61782C46.2085 3.93504 45.4607 3.54092 44.1443 3.59787Z" fill="#CC2929"/>
<path d="M48.2799 14.8413C50.0202 15.8585 50.0676 17.0271 48.5587 17.8476C48.6975 17.8984 48.8436 17.9504 48.9955 18.0045C50.7755 18.6382 53.3448 19.5529 54.0293 22.0893C54.4873 23.7869 53.0927 25.3075 51.2153 26.2245C51.3181 26.7685 51.526 27.1436 51.9473 27.2553C55.8508 28.29 61.7593 22.7807 61.7593 15.8619C61.7593 8.94297 59.5007 3.35454 55.1906 3.53252C53.7257 3.59301 52.6145 4.1948 51.7549 5.10873C53.8162 5.9771 55.672 7.51916 55.1063 9.61572C54.7583 10.9053 53.6044 11.3018 52.3046 11.7486C50.8296 12.2555 49.1666 12.8271 48.2799 14.8413Z" fill="#CC2929"/>
<path d="M55.1063 9.61572C55.672 7.51916 53.8162 5.9771 51.7549 5.10873C49.9391 7.03921 49.2457 10.3624 48.7122 12.9188C48.5626 13.6358 48.4255 14.2926 48.2799 14.8413C49.1666 12.8271 50.8296 12.2555 52.3046 11.7486C53.6044 11.3018 54.7583 10.9053 55.1063 9.61572Z" fill="#F33131"/>
<path d="M46.1495 14.777C46.8302 14.4835 47.608 14.5747 48.2799 14.8413C48.4255 14.2926 48.5626 13.6358 48.7122 12.9188C49.2457 10.3624 49.9391 7.03921 51.7549 5.10873C50.4946 4.5778 49.1575 4.29871 48.2501 4.29871C47.6938 4.29871 47.1364 4.41434 46.5969 4.61782C47.2607 5.78479 46.8744 7.79498 46.4819 9.83751C46.1343 11.6464 45.7818 13.4806 46.1495 14.777Z" fill="#CC2929"/>
<path d="M46.5969 4.61782C44.1788 5.52975 42.1187 8.20613 42.1187 10.1454C42.1187 10.9942 42.7591 11.4007 43.5551 11.906C44.4544 12.4769 45.5523 13.1739 46.1495 14.777C45.7818 13.4806 46.1343 11.6464 46.4819 9.83751C46.8744 7.79498 47.2607 5.78479 46.5969 4.61782Z" fill="#F33131"/>
<path d="M40.2243 22.0616C40.2243 23.8156 41.1959 25.1185 42.7337 25.9678C43.0883 25.4825 43.1985 24.64 43.3265 23.6615C43.584 21.6931 43.9135 19.1746 46.4498 17.9092C45.5442 18.2734 44.6823 18.5198 43.9043 18.7422C41.7394 19.3612 40.2243 19.7944 40.2243 22.0616Z" fill="#F33131"/>
<path d="M46.4498 17.9092C43.9135 19.1746 43.584 21.6931 43.3265 23.6615C43.1985 24.64 43.0883 25.4825 42.7337 25.9678C43.4441 26.3601 44.2754 26.6557 45.1876 26.8542C45.8396 26.9962 46.5087 27.0929 47.1758 27.1251C48.4615 27.1873 49.9483 26.8433 51.2153 26.2245C51.1153 25.695 51.1149 25.0056 51.1145 24.2436C51.1133 21.9979 51.1118 19.1214 48.5587 17.8476C47.9027 18.1535 47.115 18.2203 46.4498 17.9092Z" fill="#CC2929"/>
<path d="M51.2153 26.2245C53.0927 25.3075 54.4873 23.7869 54.0293 22.0893C53.3448 19.5529 50.7755 18.6382 48.9955 18.0045C48.8436 17.9504 48.6975 17.8984 48.5587 17.8476C51.1118 19.1214 51.1133 21.9979 51.1145 24.2436C51.1149 25.0056 51.1153 25.695 51.2153 26.2245Z" fill="#F33131"/>
<path fill-rule="evenodd" clip-rule="evenodd" d="M24.367 0.882353C23.5686 0.882353 22.9555 1.2624 22.5278 2.02248L16.9246 12.1569L11.3214 2.02248C10.8937 1.2624 10.2806 0.882353 9.48221 0.882353H1.65486C1.34119 0.882353 1.0703 0.994958 0.84218 1.22017C0.61406 1.44538 0.5 1.71282 0.5 2.02248V58.8599C0.5 59.1695 0.619849 59.437 0.859555 59.6622C1.09926 59.8874 1.38391 60 1.71351 60H20.2308C24.3658 60 27.5119 59.2399 29.6693 57.7197C30.9311 56.8141 31.8842 55.5451 32.4091 54.1002L30.7298 58.8176L30.6858 59.071C30.6858 59.3244 30.7739 59.5496 30.9501 59.7466C31.1557 59.9156 31.3907 60 31.6551 60H39.9825C40.9225 60 41.5834 59.5214 41.9652 58.5643L43.0667 55.6084H53.8175L54.919 58.5643C55.3008 59.5214 55.9617 60 56.9017 60H59.4029C61.4172 51.1056 56.6326 43.8599 51.4772 37.097C49.7911 34.8851 48.1146 32.686 46.831 30.4412H42.3177C41.7596 30.4412 41.319 30.5819 40.9959 30.8634C40.6728 31.145 40.4525 31.4687 40.335 31.8347L32.4424 54.0067C32.769 53.0278 32.9053 51.9289 32.9053 50.7101C32.9053 49.2462 32.4858 47.9513 31.6469 46.8252C30.8079 45.671 29.8041 44.925 28.6355 44.5872C29.4745 44.3338 30.2835 43.7286 31.0626 42.7714C31.8416 41.8143 32.2311 40.6601 32.2311 39.3088C32.2311 36.6975 31.3885 34.1968 29.1749 32.637C27.1673 31.1731 24.0362 30.4412 19.7814 30.4412H10.5515V16.2107L13.6739 22.2914C13.9652 22.9623 14.7737 23.3471 15.4703 23.3471H18.3789C19.0755 23.3471 19.8841 22.9623 20.1753 22.2914L23.2977 16.2107V29.301C23.2977 29.6107 23.4118 29.8782 23.6399 30.1034C23.868 30.3286 24.1389 30.4412 24.4526 30.4412H32.1944C32.508 30.4412 32.7789 30.3286 33.007 30.1034C33.2352 29.8782 33.3492 29.6107 33.3492 29.301V17.7151C33.3492 22.0839 34.6951 25.2972 37.3868 27.3548C39.8155 29.1932 42.9569 30.2103 46.8111 30.4061C46.1452 29.2377 45.5873 28.0581 45.1876 26.8542C44.2754 26.6557 43.4441 26.3601 42.7337 25.9678C42.5895 26.165 42.405 26.3032 42.1624 26.3675C38.9685 27.2141 35.1249 21.3567 35.1249 15.7845C35.1249 6.81235 40.8656 3.73974 44.1443 3.59787C45.4607 3.54092 46.2085 3.93504 46.5969 4.61782C47.1364 4.41434 47.6938 4.29871 48.2501 4.29871C49.1575 4.29871 50.4946 4.5778 51.7549 5.10873C52.6145 4.1948 53.7257 3.59301 55.1906 3.53252C59.5007 3.35454 61.7593 8.94297 61.7593 15.8619C61.7593 22.7807 55.8508 28.29 51.9473 27.2553C51.526 27.1436 51.3181 26.7685 51.2153 26.2245C49.9483 26.8433 48.4615 27.1873 47.1758 27.1251C47.6406 28.2789 48.2337 29.3764 48.8891 30.4335C53.0817 30.3357 56.4565 29.3095 59.0136 27.3548C61.7319 25.2972 63.0911 22.1121 63.0911 17.7996V12.6415C63.0911 9.79473 62.4381 7.42708 61.1323 5.5386C59.8264 3.65012 58.0541 2.2549 55.8155 1.35294C53.6035 0.45098 51.0717 3.38503e-10 48.2201 3.38503e-10C45.3685 3.38503e-10 42.8234 0.45098 40.5848 1.35294C38.3462 2.2549 36.5739 3.66422 35.268 5.58088C33.9888 7.46936 33.3492 9.8511 33.3492 12.7261V2.02248C33.3492 1.71282 33.2352 1.44538 33.007 1.22017C32.7789 0.994958 32.508 0.882353 32.1944 0.882353H24.367ZM45.3138 47.3742L48.4421 38.591L51.5704 47.3742H45.3138ZM19.5567 38.2532C19.8862 38.6191 20.051 39.0555 20.051 39.5622C20.051 40.0689 19.8862 40.5334 19.5567 40.9557C19.257 41.3498 18.8076 41.5468 18.2083 41.5468H12.1857V37.7042H18.2083C18.8076 37.7042 19.257 37.8872 19.5567 38.2532ZM20.2308 52.1036C19.9012 52.5258 19.3919 52.737 18.7027 52.737H12.1857V48.5987H18.7027C19.3319 48.5987 19.8263 48.7958 20.1859 49.1899C20.5735 49.5821 20.7702 50.0781 20.7702 50.6256C20.7702 51.1605 20.5904 51.6532 20.2308 52.1036Z" fill="#282828"/>
<path d="M55.8883 30.8634C55.5652 30.5819 55.1246 30.4412 54.5665 30.4412H48.8939C50.0347 32.2799 51.4508 34.1387 52.949 36.1052C58.3243 43.161 63.1571 50.7365 61.2196 60H65.2291C65.4935 60 65.7138 59.9156 65.89 59.7466C66.0956 59.5496 66.1984 59.3244 66.1984 59.071L66.1544 58.8176L56.5492 31.8347C56.4317 31.4687 56.2114 31.145 55.8883 30.8634Z" fill="#282828"/>
<path d="M48.5587 17.8476C50.0676 17.0271 50.0202 15.8585 48.2799 14.8413C47.608 14.5747 46.8302 14.4835 46.1495 14.777C44.4092 15.7943 44.941 17.0887 46.4498 17.9092C47.115 18.2203 47.9027 18.1535 48.5587 17.8476Z" fill="#282828"/>
<path d="M96.9403 21.2457C96.7514 21.2457 96.5814 21.1807 96.4303 21.0507C96.2981 20.9207 96.232 20.7535 96.232 20.5492V2.43979C96.232 2.23548 96.2981 2.06831 96.4303 1.93829C96.5814 1.80828 96.7514 1.74329 96.9403 1.74329H99.575C99.8583 1.74329 100.066 1.81757 100.198 1.96616C100.349 2.11475 100.453 2.2262 100.51 2.3005L105.723 11.7453L110.992 2.3005C111.03 2.2262 111.115 2.11475 111.247 1.96616C111.398 1.81757 111.615 1.74329 111.899 1.74329H114.533C114.741 1.74329 114.911 1.80828 115.043 1.93829C115.175 2.06831 115.241 2.23548 115.241 2.43979V20.5492C115.241 20.7535 115.175 20.9207 115.043 21.0507C114.911 21.1807 114.741 21.2457 114.533 21.2457H111.644C111.455 21.2457 111.294 21.1807 111.162 21.0507C111.03 20.9207 110.964 20.7535 110.964 20.5492V9.29352L107.366 15.9243C107.271 16.0915 107.149 16.2401 106.997 16.3701C106.846 16.5001 106.648 16.5651 106.402 16.5651H105.071C104.825 16.5651 104.627 16.5001 104.476 16.3701C104.325 16.2401 104.202 16.0915 104.108 15.9243L100.51 9.29352V20.5492C100.51 20.7535 100.444 20.9207 100.312 21.0507C100.179 21.1807 100.019 21.2457 99.8299 21.2457H96.9403Z" fill="#282828"/>
<path d="M143.521 21.5243C142.142 21.5243 140.924 21.2736 139.867 20.7721C138.828 20.2706 138.006 19.5462 137.402 18.599C136.797 17.6331 136.467 16.4815 136.41 15.1442C136.391 14.8471 136.382 14.4756 136.382 14.0298C136.382 13.5655 136.391 13.1847 136.41 12.8875C136.467 11.5316 136.788 10.3801 137.373 9.4328C137.978 8.46697 138.809 7.73331 139.867 7.23182C140.924 6.73033 142.142 6.47958 143.521 6.47958C144.786 6.47958 145.863 6.65604 146.751 7.00894C147.638 7.34327 148.366 7.77046 148.932 8.29053C149.499 8.81059 149.914 9.35851 150.179 9.9343C150.462 10.4915 150.613 10.9837 150.632 11.4109C150.651 11.5967 150.585 11.7638 150.434 11.9124C150.301 12.0424 150.141 12.1074 149.952 12.1074H146.921C146.732 12.1074 146.581 12.061 146.467 11.9681C146.373 11.8567 146.279 11.7081 146.184 11.5224C145.92 10.8723 145.58 10.4079 145.164 10.1293C144.749 9.85072 144.229 9.71142 143.606 9.71142C142.756 9.71142 142.086 9.98075 141.595 10.5194C141.104 11.058 140.839 11.8938 140.801 13.0268C140.783 13.7512 140.783 14.4106 140.801 15.0049C140.858 16.1565 141.122 16.9923 141.595 17.5124C142.086 18.0325 142.756 18.2925 143.606 18.2925C144.267 18.2925 144.796 18.1532 145.193 17.8746C145.589 17.596 145.92 17.1316 146.184 16.4816C146.26 16.2958 146.354 16.1565 146.467 16.0636C146.581 15.9522 146.732 15.8965 146.921 15.8965H149.952C150.141 15.8965 150.301 15.9708 150.434 16.1194C150.585 16.2494 150.651 16.4073 150.632 16.593C150.613 16.9088 150.519 17.2802 150.349 17.7074C150.198 18.1346 149.943 18.5711 149.584 19.0169C149.244 19.4626 148.8 19.8806 148.252 20.2706C147.704 20.6421 147.034 20.9485 146.241 21.19C145.466 21.4129 144.56 21.5243 143.521 21.5243Z" fill="#282828"/>
<path d="M157.887 21.2457C157.679 21.2457 157.509 21.1807 157.377 21.0507C157.245 20.9207 157.178 20.7535 157.178 20.5492V10.0457H152.731C152.523 10.0457 152.353 9.98075 152.221 9.85073C152.088 9.72071 152.022 9.55355 152.022 9.34924V7.45472C152.022 7.2504 152.088 7.08324 152.221 6.95322C152.353 6.8232 152.523 6.75819 152.731 6.75819H165.791C165.999 6.75819 166.168 6.8232 166.301 6.95322C166.433 7.08324 166.499 7.2504 166.499 7.45472V9.34924C166.499 9.55355 166.433 9.72071 166.301 9.85073C166.168 9.98075 165.999 10.0457 165.791 10.0457H161.343V20.5492C161.343 20.7535 161.277 20.9207 161.145 21.0507C161.012 21.1807 160.852 21.2457 160.663 21.2457H157.887Z" fill="#282828"/>
<path d="M175.255 21.5243C173.083 21.5243 171.355 20.93 170.07 19.7413C168.805 18.5525 168.134 16.8252 168.059 14.5592C168.059 14.4106 168.059 14.2155 168.059 13.9741C168.059 13.7141 168.059 13.5097 168.059 13.3612C168.134 11.931 168.465 10.7051 169.05 9.68355C169.636 8.64342 170.458 7.85405 171.515 7.31541C172.573 6.75819 173.81 6.47958 175.226 6.47958C176.813 6.47958 178.135 6.80464 179.193 7.45472C180.269 8.08622 181.072 8.95918 181.601 10.0736C182.148 11.1695 182.422 12.4325 182.422 13.8626V14.5035C182.422 14.6892 182.347 14.8471 182.196 14.9771C182.063 15.1071 181.903 15.1721 181.714 15.1721H172.45C172.45 15.1907 172.45 15.2278 172.45 15.2835C172.45 15.3207 172.45 15.3578 172.45 15.395C172.469 15.9893 172.582 16.5373 172.79 17.0388C173.017 17.5217 173.328 17.9117 173.725 18.2089C174.14 18.5061 174.632 18.6547 175.198 18.6547C175.67 18.6547 176.057 18.5897 176.36 18.4597C176.662 18.3296 176.907 18.1718 177.096 17.986C177.304 17.8003 177.455 17.6424 177.549 17.5124C177.719 17.3267 177.852 17.2152 177.946 17.1781C178.059 17.1223 178.229 17.0945 178.456 17.0945H181.402C181.591 17.0945 181.742 17.1502 181.856 17.2617C181.988 17.3545 182.045 17.4938 182.026 17.6796C182.007 17.9767 181.846 18.3482 181.544 18.794C181.261 19.2212 180.836 19.6484 180.269 20.0756C179.703 20.4842 178.994 20.8278 178.144 21.1064C177.313 21.385 176.35 21.5243 175.255 21.5243ZM172.45 12.6368H178.003V12.5811C178.003 11.9124 177.889 11.3366 177.663 10.8537C177.455 10.3522 177.143 9.96216 176.728 9.68355C176.312 9.40495 175.812 9.26565 175.226 9.26565C174.641 9.26565 174.14 9.40495 173.725 9.68355C173.309 9.96216 172.988 10.3522 172.762 10.8537C172.554 11.3366 172.45 11.9124 172.45 12.5811V12.6368Z" fill="#282828"/>
<path d="M197.578 24.589C197.389 24.589 197.228 24.524 197.096 24.394C196.964 24.264 196.898 24.0968 196.898 23.8925V21.2457H185.934C185.745 21.2457 185.585 21.1807 185.452 21.0507C185.32 20.9207 185.254 20.7535 185.254 20.5492V7.45472C185.254 7.2504 185.32 7.08324 185.452 6.95322C185.585 6.8232 185.745 6.75819 185.934 6.75819H188.767C188.975 6.75819 189.145 6.8232 189.277 6.95322C189.409 7.08324 189.475 7.2504 189.475 7.45472V17.9582H194.943V7.45472C194.943 7.2504 195.009 7.08324 195.141 6.95322C195.274 6.8232 195.444 6.75819 195.651 6.75819H198.484C198.673 6.75819 198.834 6.8232 198.966 6.95322C199.098 7.08324 199.164 7.2504 199.164 7.45472V17.9582H200.411C200.619 17.9582 200.788 18.0232 200.921 18.1532C201.053 18.2832 201.119 18.4504 201.119 18.6547V23.8925C201.119 24.0968 201.053 24.264 200.921 24.394C200.788 24.524 200.619 24.589 200.411 24.589H197.578Z" fill="#282828"/>
<path d="M204.249 21.2457C204.06 21.2457 203.9 21.1807 203.767 21.0507C203.635 20.9207 203.569 20.7535 203.569 20.5492V7.45472C203.569 7.2504 203.635 7.08324 203.767 6.95322C203.9 6.8232 204.06 6.75819 204.249 6.75819H207.11C207.299 6.75819 207.46 6.8232 207.592 6.95322C207.724 7.08324 207.79 7.2504 207.79 7.45472V11.2716H210.623C212.531 11.2716 213.985 11.7267 214.986 12.6368C215.987 13.5283 216.488 14.7542 216.488 16.3144C216.488 17.9489 215.959 19.184 214.901 20.0199C213.843 20.8371 212.342 21.2457 210.397 21.2457H204.249ZM207.734 18.3204H210.255C211.086 18.3204 211.69 18.1718 212.068 17.8746C212.465 17.5588 212.663 17.0388 212.663 16.3144C212.663 15.6086 212.474 15.0792 212.096 14.7263C211.719 14.3734 211.105 14.197 210.255 14.197H207.734V18.3204Z" fill="#282828"/>
<path d="M219.659 21.2457C219.47 21.2457 219.31 21.1807 219.177 21.0507C219.045 20.9207 218.979 20.7535 218.979 20.5492V7.45472C218.979 7.2504 219.045 7.08324 219.177 6.95322C219.31 6.8232 219.47 6.75819 219.659 6.75819H222.435C222.643 6.75819 222.813 6.8232 222.945 6.95322C223.078 7.08324 223.144 7.2504 223.144 7.45472V12.2467H224.928L228.215 7.20397C228.271 7.09253 228.356 6.99037 228.47 6.8975C228.602 6.80463 228.772 6.75819 228.98 6.75819H232.068C232.238 6.75819 232.379 6.81391 232.493 6.92535C232.625 7.01822 232.691 7.13895 232.691 7.28754C232.691 7.34326 232.672 7.40827 232.634 7.48256C232.615 7.55686 232.587 7.62187 232.549 7.67759L228.555 13.7512L233.172 20.3542C233.248 20.4656 233.286 20.5864 233.286 20.7164C233.286 20.865 233.229 20.995 233.116 21.1064C233.003 21.1993 232.861 21.2457 232.691 21.2457H229.263C229.074 21.2457 228.914 21.2086 228.781 21.1343C228.668 21.0414 228.564 20.93 228.47 20.7999L224.9 15.5622H223.144V20.5492C223.144 20.7535 223.078 20.9207 222.945 21.0507C222.813 21.1807 222.643 21.2457 222.435 21.2457H219.659Z" fill="#282828"/>
<path d="M242.207 21.5243C240.035 21.5243 238.307 20.93 237.022 19.7413C235.757 18.5525 235.086 16.8252 235.011 14.5592C235.011 14.4106 235.011 14.2155 235.011 13.9741C235.011 13.7141 235.011 13.5097 235.011 13.3612C235.086 11.931 235.417 10.7051 236.002 9.68355C236.588 8.64342 237.41 7.85405 238.467 7.31541C239.525 6.75819 240.762 6.47958 242.178 6.47958C243.765 6.47958 245.087 6.80464 246.145 7.45472C247.221 8.08622 248.024 8.95918 248.553 10.0736C249.1 11.1695 249.374 12.4325 249.374 13.8626V14.5035C249.374 14.6892 249.299 14.8471 249.148 14.9771C249.015 15.1071 248.855 15.1721 248.666 15.1721H239.402C239.402 15.1907 239.402 15.2278 239.402 15.2835C239.402 15.3207 239.402 15.3578 239.402 15.395C239.421 15.9893 239.534 16.5373 239.742 17.0388C239.969 17.5217 240.28 17.9117 240.677 18.2089C241.092 18.5061 241.583 18.6547 242.15 18.6547C242.622 18.6547 243.009 18.5897 243.312 18.4597C243.614 18.3296 243.859 18.1718 244.048 17.986C244.256 17.8003 244.407 17.6424 244.501 17.5124C244.671 17.3267 244.804 17.2152 244.898 17.1781C245.011 17.1223 245.181 17.0945 245.408 17.0945H248.354C248.543 17.0945 248.694 17.1502 248.808 17.2617C248.94 17.3545 248.996 17.4938 248.978 17.6796C248.959 17.9767 248.798 18.3482 248.496 18.794C248.213 19.2212 247.788 19.6484 247.221 20.0756C246.655 20.4842 245.946 20.8278 245.096 21.1064C244.265 21.385 243.302 21.5243 242.207 21.5243ZM239.402 12.6368H244.955V12.5811C244.955 11.9124 244.841 11.3366 244.615 10.8537C244.407 10.3522 244.095 9.96216 243.68 9.68355C243.264 9.40495 242.764 9.26565 242.178 9.26565C241.593 9.26565 241.092 9.40495 240.677 9.68355C240.261 9.96216 239.94 10.3522 239.714 10.8537C239.506 11.3366 239.402 11.9124 239.402 12.5811V12.6368Z" fill="#282828"/>
<path d="M266.646 21.5243C264.927 21.5243 263.445 21.2457 262.198 20.6885C260.952 20.1313 259.979 19.2955 259.28 18.1811C258.581 17.0481 258.204 15.6272 258.147 13.9184C258.128 13.1197 258.119 12.3303 258.119 11.5502C258.119 10.7516 258.128 9.94358 258.147 9.12634C258.204 7.4547 258.581 6.05239 259.28 4.91939C259.998 3.76782 260.98 2.90414 262.227 2.32835C263.492 1.75256 264.965 1.46467 266.646 1.46467C268.308 1.46467 269.762 1.75256 271.009 2.32835C272.274 2.90414 273.266 3.76782 273.983 4.91939C274.701 6.05239 275.079 7.4547 275.117 9.12634C275.155 9.94358 275.173 10.7516 275.173 11.5502C275.173 12.3303 275.155 13.1197 275.117 13.9184C275.06 15.6272 274.682 17.0481 273.983 18.1811C273.285 19.2955 272.312 20.1313 271.065 20.6885C269.819 21.2457 268.346 21.5243 266.646 21.5243ZM266.646 17.9303C267.741 17.9303 268.639 17.6053 269.337 16.9552C270.055 16.2865 270.433 15.2278 270.471 13.7791C270.508 12.9618 270.527 12.2003 270.527 11.4945C270.527 10.7701 270.508 10.0086 270.471 9.20993C270.452 8.24409 270.272 7.45472 269.932 6.84178C269.592 6.22885 269.139 5.78306 268.572 5.50446C268.025 5.20728 267.383 5.0587 266.646 5.0587C265.909 5.0587 265.258 5.20728 264.691 5.50446C264.125 5.78306 263.671 6.22885 263.331 6.84178C263.01 7.45472 262.831 8.24409 262.793 9.20993C262.774 10.0086 262.765 10.7701 262.765 11.4945C262.765 12.2003 262.774 12.9618 262.793 13.7791C262.85 15.2278 263.228 16.2865 263.926 16.9552C264.625 17.6053 265.532 17.9303 266.646 17.9303Z" fill="#282828"/>
<path d="M295.56 8.06765C295.39 8.06765 295.257 8.01191 295.163 7.90047C295.068 7.78903 295.031 7.64045 295.05 7.45472L295.843 2.38407C295.881 2.14261 295.975 1.92902 296.126 1.74329C296.277 1.55755 296.504 1.46467 296.806 1.46467H299.752C299.903 1.46467 300.026 1.52038 300.121 1.63183C300.234 1.74327 300.291 1.86402 300.291 1.99403C300.291 2.12405 300.262 2.23548 300.206 2.32835L298.223 7.34326C298.147 7.52899 298.034 7.69616 297.883 7.84475C297.75 7.99334 297.543 8.06765 297.259 8.06765H295.56Z" fill="#282828"/>
<path d="M309.58 21.5243C307.275 21.5243 305.51 20.9857 304.282 19.9084C303.073 18.8126 302.422 17.2524 302.327 15.2278C302.327 15.0792 302.318 14.8378 302.299 14.5035C302.299 14.1691 302.299 13.8348 302.299 13.5005C302.318 13.1661 302.327 12.9247 302.327 12.7761C302.422 10.7701 303.092 9.21922 304.339 8.12337C305.585 7.02752 307.332 6.47958 309.58 6.47958C311.109 6.47958 312.346 6.70248 313.291 7.14825C314.235 7.57545 314.943 8.13264 315.416 8.81987C315.888 9.5071 316.162 10.2222 316.237 10.9651C316.256 11.1323 316.209 11.2623 316.095 11.3552C315.982 11.4481 315.85 11.4945 315.699 11.4945H313.036C312.885 11.4945 312.762 11.4666 312.668 11.4109C312.573 11.3552 312.488 11.2623 312.413 11.1323C312.092 10.5194 311.704 10.0922 311.251 9.85073C310.817 9.5907 310.26 9.46067 309.58 9.46067C308.749 9.46067 308.069 9.71143 307.54 10.2129C307.03 10.6958 306.765 11.4759 306.747 12.5532V12.6925H311.194C311.383 12.6925 311.534 12.7575 311.648 12.8875C311.761 12.999 311.818 13.1383 311.818 13.3054V14.6706C311.818 14.8563 311.761 15.0049 311.648 15.1164C311.534 15.2278 311.383 15.2835 311.194 15.2835H306.747V15.4507C306.765 16.5651 307.03 17.3638 307.54 17.8467C308.05 18.3296 308.73 18.5711 309.58 18.5711C310.297 18.5711 310.864 18.4504 311.279 18.2089C311.714 17.9489 312.082 17.5124 312.384 16.8995C312.46 16.7695 312.545 16.6859 312.639 16.6487C312.734 16.593 312.856 16.5651 313.008 16.5651H315.756C315.907 16.5651 316.039 16.6209 316.152 16.7323C316.265 16.8252 316.313 16.9459 316.294 17.0945C316.218 17.8189 315.944 18.5247 315.472 19.2119C315 19.8806 314.282 20.4378 313.319 20.8835C312.375 21.3107 311.128 21.5243 309.58 21.5243Z" fill="#282828"/>
<path d="M318.871 24.3104C318.682 24.3104 318.521 24.2454 318.389 24.1154C318.257 23.9853 318.191 23.8182 318.191 23.6139V18.6547C318.191 18.4504 318.257 18.2832 318.389 18.1532C318.521 18.0232 318.682 17.9582 318.871 17.9582H319.126C319.617 17.9582 320.004 17.7074 320.287 17.2059C320.589 16.7044 320.807 15.9615 320.939 14.9771C321.071 13.9927 321.137 12.7575 321.137 11.2716V7.45472C321.137 7.2504 321.203 7.08324 321.335 6.95322C321.468 6.8232 321.628 6.75819 321.817 6.75819H332.413C332.62 6.75819 332.79 6.8232 332.922 6.95322C333.055 7.08324 333.121 7.2504 333.121 7.45472V17.9303H334.367C334.556 17.9303 334.717 17.9953 334.849 18.1253C334.981 18.2554 335.047 18.4225 335.047 18.6268V23.6139C335.047 23.8182 334.981 23.9853 334.849 24.1154C334.717 24.2454 334.556 24.3104 334.367 24.3104H331.534C331.327 24.3104 331.157 24.2454 331.024 24.1154C330.892 23.9853 330.826 23.8182 330.826 23.6139V21.2457H322.412V23.6139C322.412 23.8182 322.346 23.9853 322.214 24.1154C322.081 24.2454 321.912 24.3104 321.704 24.3104H318.871ZM323.998 17.9582L328.9 17.9303V10.0457H325.16V11.7453C325.16 13.2683 325.056 14.5406 324.848 15.5622C324.66 16.5837 324.376 17.3824 323.998 17.9582Z" fill="#282828"/>
<path d="M338.181 21.2457C337.992 21.2457 337.831 21.1807 337.699 21.0507C337.567 20.9207 337.501 20.7535 337.501 20.5492V7.45472C337.501 7.2504 337.567 7.08324 337.699 6.95322C337.831 6.8232 337.992 6.75819 338.181 6.75819H341.014C341.221 6.75819 341.391 6.8232 341.523 6.95322C341.656 7.08324 341.722 7.2504 341.722 7.45472V12.2467H347.473V7.45472C347.473 7.2504 347.539 7.08324 347.671 6.95322C347.803 6.8232 347.973 6.75819 348.181 6.75819H351.014C351.203 6.75819 351.363 6.8232 351.496 6.95322C351.628 7.08324 351.694 7.2504 351.694 7.45472V20.5492C351.694 20.7535 351.628 20.9207 351.496 21.0507C351.363 21.1807 351.203 21.2457 351.014 21.2457H348.181C347.973 21.2457 347.803 21.1807 347.671 21.0507C347.539 20.9207 347.473 20.7535 347.473 20.5492V15.5343H341.722V20.5492C341.722 20.7535 341.656 20.9207 341.523 21.0507C341.391 21.1807 341.221 21.2457 341.014 21.2457H338.181Z" fill="#282828"/>
<path d="M359.68 21.5243C358.679 21.5243 357.782 21.3386 356.988 20.9671C356.195 20.5771 355.562 20.057 355.09 19.4069C354.618 18.7568 354.382 18.0325 354.382 17.2338C354.382 15.915 354.92 14.8749 355.997 14.1134C357.092 13.3519 358.528 12.8318 360.303 12.5532L364.014 12.0238V11.5224C364.014 10.798 363.844 10.2408 363.504 9.85073C363.164 9.46068 362.569 9.26565 361.72 9.26565C361.096 9.26565 360.596 9.38637 360.218 9.62783C359.84 9.86929 359.548 10.1851 359.34 10.5751C359.189 10.8166 358.971 10.9373 358.688 10.9373H355.997C355.789 10.9373 355.629 10.8816 355.515 10.7701C355.402 10.6401 355.355 10.4915 355.374 10.3244C355.374 10.0086 355.496 9.63712 355.742 9.20993C355.987 8.78273 356.365 8.36481 356.875 7.95619C357.385 7.529 358.037 7.17611 358.83 6.8975C359.623 6.6189 360.596 6.47958 361.748 6.47958C362.938 6.47958 363.958 6.6189 364.807 6.8975C365.657 7.17611 366.337 7.56616 366.847 8.06765C367.357 8.56914 367.735 9.15421 367.98 9.82286C368.226 10.4729 368.349 11.1788 368.349 11.9403V20.5492C368.349 20.7535 368.283 20.9207 368.15 21.0507C368.018 21.1807 367.848 21.2457 367.641 21.2457H364.864C364.675 21.2457 364.515 21.1807 364.383 21.0507C364.25 20.9207 364.184 20.7535 364.184 20.5492V19.5184C363.939 19.8713 363.608 20.2056 363.193 20.5214C362.777 20.8185 362.277 21.06 361.691 21.2457C361.125 21.4315 360.454 21.5243 359.68 21.5243ZM360.813 18.6268C361.436 18.6268 361.993 18.4968 362.484 18.2368C362.976 17.9767 363.363 17.5774 363.646 17.0388C363.929 16.5001 364.071 15.8222 364.071 15.0049V14.5313L361.436 14.9492C360.416 15.1164 359.67 15.3671 359.198 15.7014C358.726 16.0358 358.49 16.4444 358.49 16.9273C358.49 17.2802 358.594 17.5867 358.802 17.8467C359.028 18.1068 359.321 18.3018 359.68 18.4318C360.039 18.5618 360.416 18.6268 360.813 18.6268Z" fill="#282828"/>
<path d="M372.459 21.2457C372.27 21.2457 372.109 21.1807 371.977 21.0507C371.845 20.9207 371.779 20.7535 371.779 20.5492V7.45472C371.779 7.2504 371.845 7.08324 371.977 6.95322C372.109 6.8232 372.27 6.75819 372.459 6.75819H375.292C375.5 6.75819 375.67 6.8232 375.802 6.95322C375.934 7.08324 376 7.2504 376 7.45472V12.2467H381.751V7.45472C381.751 7.2504 381.817 7.08324 381.949 6.95322C382.082 6.8232 382.252 6.75819 382.459 6.75819H385.292C385.481 6.75819 385.642 6.8232 385.774 6.95322C385.906 7.08324 385.972 7.2504 385.972 7.45472V20.5492C385.972 20.7535 385.906 20.9207 385.774 21.0507C385.642 21.1807 385.481 21.2457 385.292 21.2457H382.459C382.252 21.2457 382.082 21.1807 381.949 21.0507C381.817 20.9207 381.751 20.7535 381.751 20.5492V15.5343H376V20.5492C376 20.7535 375.934 20.9207 375.802 21.0507C375.67 21.1807 375.5 21.2457 375.292 21.2457H372.459Z" fill="#282828"/>
<path d="M390.303 21.2457C390.115 21.2457 389.954 21.1807 389.822 21.0507C389.69 20.9207 389.624 20.7535 389.624 20.5492V7.45472C389.624 7.2504 389.69 7.08324 389.822 6.95322C389.954 6.8232 390.115 6.75819 390.303 6.75819H393.137C393.344 6.75819 393.514 6.8232 393.646 6.95322C393.779 7.08324 393.845 7.2504 393.845 7.45472V12.2467H399.596V7.45472C399.596 7.2504 399.662 7.08324 399.794 6.95322C399.926 6.8232 400.096 6.75819 400.304 6.75819H403.137C403.326 6.75819 403.486 6.8232 403.619 6.95322C403.751 7.08324 403.817 7.2504 403.817 7.45472V20.5492C403.817 20.7535 403.751 20.9207 403.619 21.0507C403.486 21.1807 403.326 21.2457 403.137 21.2457H400.304C400.096 21.2457 399.926 21.1807 399.794 21.0507C399.662 20.9207 399.596 20.7535 399.596 20.5492V15.5343H393.845V20.5492C393.845 20.7535 393.779 20.9207 393.646 21.0507C393.514 21.1807 393.344 21.2457 393.137 21.2457H390.303Z" fill="#282828"/>
<path d="M119.784 21.2457C119.614 21.2457 119.463 21.1807 119.331 21.0507C119.198 20.9207 119.132 20.7628 119.132 20.5771V7.45472C119.132 7.2504 119.198 7.08324 119.331 6.95322C119.463 6.8232 119.623 6.75819 119.812 6.75819H122.645C122.853 6.75819 123.023 6.8232 123.155 6.95322C123.287 7.08324 123.353 7.2504 123.353 7.45472V15.8382L129.614 7.20397C129.709 7.07395 129.813 6.9718 129.926 6.8975C130.058 6.80463 130.219 6.75819 130.408 6.75819H132.957C133.146 6.75819 133.307 6.8232 133.439 6.95322C133.571 7.08324 133.637 7.23183 133.637 7.399V20.5492C133.637 20.7535 133.571 20.9207 133.439 21.0507C133.307 21.1807 133.137 21.2457 132.929 21.2457H130.096C129.907 21.2457 129.747 21.1807 129.614 21.0507C129.482 20.9207 129.416 20.7535 129.416 20.5492V12.1691L123.127 20.7999C123.051 20.93 122.947 21.0414 122.815 21.1343C122.683 21.2086 122.532 21.2457 122.362 21.2457H119.784Z" fill="#282828"/>
<path fill-rule="evenodd" clip-rule="evenodd" d="M285.234 21.5243C283.591 21.5243 282.241 21.255 281.183 20.7164C280.144 20.1777 279.36 19.3698 278.831 18.2925C278.322 17.1966 278.029 15.8408 277.953 14.2248C277.934 13.6862 277.925 13.129 277.925 12.5532C277.925 11.9774 277.934 11.4202 277.953 10.8816C277.991 9.28423 278.152 7.94691 278.435 6.86963C278.737 5.77378 279.181 4.87295 279.766 4.16715C280.371 3.44277 281.136 2.84841 282.061 2.38407C283.005 1.90115 284.129 1.48325 285.432 1.13035C286.736 0.777451 288.247 0.405972 289.965 0.0159233C290.154 -0.0212248 290.333 0.00662293 290.503 0.0994916C290.673 0.192361 290.768 0.340956 290.787 0.545267L291.212 2.71841C291.25 2.92272 291.212 3.09916 291.098 3.24775C291.004 3.39634 290.872 3.48922 290.702 3.52637C289.247 3.82355 288.01 4.09285 286.991 4.33431C285.971 4.57577 285.121 4.85438 284.441 5.17014C283.78 5.46732 283.27 5.86664 282.911 6.36814C282.552 6.85105 282.297 7.49186 282.146 8.29053C282.09 8.62003 282.05 8.98765 282.024 9.39337C282.089 9.32148 282.158 9.25104 282.231 9.18206C282.684 8.75486 283.242 8.41125 283.903 8.15122C284.564 7.87261 285.262 7.73331 285.999 7.73331C287.378 7.73331 288.539 7.97477 289.484 8.45768C290.428 8.9406 291.146 9.62784 291.637 10.5194C292.147 11.3924 292.439 12.4418 292.515 13.6676C292.553 14.3548 292.553 14.9956 292.515 15.59C292.439 16.7787 292.118 17.8282 291.552 18.7383C291.004 19.6298 290.201 20.317 289.144 20.7999C288.086 21.2829 286.783 21.5243 285.234 21.5243ZM287.331 17.9024C286.858 18.4411 286.16 18.7104 285.234 18.7104C284.309 18.7104 283.61 18.4411 283.138 17.9024C282.665 17.3452 282.401 16.528 282.344 15.4507C282.326 15.2464 282.316 14.9864 282.316 14.6706C282.316 14.3363 282.326 14.0391 282.344 13.7791C282.401 12.739 282.694 11.9403 283.223 11.3831C283.751 10.8259 284.488 10.5472 285.432 10.5472C286.245 10.5472 286.877 10.8259 287.331 11.3831C287.803 11.9403 288.058 12.739 288.095 13.7791C288.114 14.0391 288.124 14.3363 288.124 14.6706C288.124 14.9864 288.114 15.2464 288.095 15.4507C288.058 16.528 287.803 17.3452 287.331 17.9024Z" fill="#282828"/>
<path fill-rule="evenodd" clip-rule="evenodd" d="M416.874 21.2457C416.666 21.2457 416.496 21.1807 416.364 21.0507C416.232 20.9207 416.165 20.7535 416.165 20.5492V16.4537H413.914L411.321 20.8278C411.246 20.9393 411.142 21.0414 411.009 21.1343C410.896 21.2086 410.764 21.2457 410.613 21.2457H407.751C407.582 21.2457 407.44 21.19 407.327 21.0786C407.213 20.9671 407.157 20.8371 407.157 20.6885C407.157 20.6328 407.166 20.5678 407.185 20.4935C407.223 20.4192 407.27 20.3449 407.327 20.2706L410.204 15.7017C409.803 15.5194 409.449 15.2964 409.14 15.0328C408.139 14.1598 407.638 12.999 407.638 11.5502C407.638 9.97145 408.148 8.78273 409.168 7.98406C410.207 7.16681 411.67 6.75819 413.559 6.75819H419.792C420 6.75819 420.169 6.8232 420.302 6.95322C420.434 7.08324 420.5 7.2504 420.5 7.45472V20.5492C420.5 20.7535 420.434 20.9207 420.302 21.0507C420.169 21.1807 420 21.2457 419.792 21.2457H416.874ZM416.25 13.5283H413.587C412.851 13.5283 412.303 13.3426 411.944 12.9711C411.604 12.5996 411.434 12.126 411.434 11.5502C411.434 10.863 411.623 10.3801 412.001 10.1015C412.379 9.82287 412.955 9.68355 413.729 9.68355H416.25V13.5283Z" fill="#282828"/>
<path d="M96.9402 54.6786C96.7325 54.6786 96.5625 54.6136 96.4303 54.4836C96.2981 54.3536 96.232 54.1864 96.232 53.9821V35.8727C96.232 35.6684 96.2981 35.5012 96.4303 35.3712C96.5625 35.2412 96.7325 35.1762 96.9402 35.1762H105.354C106.922 35.1762 108.206 35.399 109.207 35.8448C110.208 36.2906 110.945 36.9221 111.417 37.7393C111.908 38.5566 112.154 39.5132 112.154 40.609C112.154 41.2962 112.021 41.8999 111.757 42.4199C111.511 42.94 111.2 43.3672 110.822 43.7015C110.463 44.0358 110.114 44.2866 109.774 44.4538C110.51 44.7881 111.153 45.3453 111.7 46.1254C112.267 46.8869 112.55 47.797 112.55 48.8557C112.55 50.0259 112.286 51.0475 111.757 51.9204C111.228 52.7934 110.444 53.4713 109.405 53.9542C108.367 54.4371 107.101 54.6786 105.609 54.6786H96.9402ZM100.736 51.4189H105.071C105.996 51.4189 106.695 51.1682 107.167 50.6667C107.64 50.1466 107.876 49.5337 107.876 48.8279C107.876 48.1035 107.63 47.4998 107.139 47.0169C106.667 46.5154 105.978 46.2647 105.071 46.2647H100.736V51.4189ZM100.736 43.0607H104.816C105.704 43.0607 106.365 42.8471 106.799 42.4199C107.252 41.9742 107.479 41.4077 107.479 40.7204C107.479 40.0332 107.252 39.4853 106.799 39.0767C106.365 38.6495 105.704 38.4359 104.816 38.4359H100.736V43.0607Z" fill="#282828"/>
<path d="M116.299 54.6786C116.11 54.6786 115.949 54.6136 115.817 54.4836C115.685 54.3536 115.619 54.1864 115.619 53.9821V40.8876C115.619 40.6833 115.685 40.5161 115.817 40.3861C115.949 40.2561 116.11 40.1911 116.299 40.1911H119.132C119.339 40.1911 119.509 40.2561 119.641 40.3861C119.774 40.5161 119.84 40.6833 119.84 40.8876V53.9821C119.84 54.1864 119.774 54.3536 119.641 54.4836C119.509 54.6136 119.339 54.6786 119.132 54.6786H116.299ZM116.214 37.9622C116.025 37.9622 115.864 37.8972 115.732 37.7672C115.6 37.6372 115.534 37.47 115.534 37.2657V35.0369C115.534 34.8325 115.6 34.6654 115.732 34.5354C115.864 34.3868 116.025 34.3125 116.214 34.3125H119.188C119.396 34.3125 119.566 34.3868 119.698 34.5354C119.849 34.6654 119.925 34.8325 119.925 35.0369V37.2657C119.925 37.47 119.849 37.6372 119.698 37.7672C119.566 37.8972 119.396 37.9622 119.188 37.9622H116.214Z" fill="#282828"/>
<path d="M122.94 57.7433C122.751 57.7433 122.59 57.6783 122.458 57.5483C122.326 57.4183 122.26 57.2511 122.26 57.0468V52.0876C122.26 51.8833 122.326 51.7161 122.458 51.5861C122.59 51.4561 122.751 51.3911 122.94 51.3911H123.194C123.686 51.3911 124.073 51.1403 124.356 50.6388C124.658 50.1373 124.875 49.3944 125.008 48.41C125.14 47.4256 125.206 46.1904 125.206 44.7045V40.8876C125.206 40.6833 125.272 40.5161 125.404 40.3861C125.536 40.2561 125.697 40.1911 125.886 40.1911H136.481C136.689 40.1911 136.859 40.2561 136.991 40.3861C137.123 40.5161 137.19 40.6833 137.19 40.8876V51.3632H138.436C138.625 51.3632 138.785 51.4282 138.918 51.5582C139.05 51.6882 139.116 51.8554 139.116 52.0597V57.0468C139.116 57.2511 139.05 57.4183 138.918 57.5483C138.785 57.6783 138.625 57.7433 138.436 57.7433H135.603C135.395 57.7433 135.225 57.6783 135.093 57.5483C134.961 57.4183 134.895 57.2511 134.895 57.0468V54.6786H126.481V57.0468C126.481 57.2511 126.415 57.4183 126.282 57.5483C126.15 57.6783 125.98 57.7433 125.773 57.7433H122.94ZM128.067 51.3911L132.968 51.3632V43.4786H129.229V45.1781C129.229 46.7012 129.125 47.9735 128.917 48.995C128.728 50.0166 128.445 50.8153 128.067 51.3911Z" fill="#282828"/>
<path d="M150.89 54.6786C150.701 54.6786 150.541 54.6136 150.408 54.4836C150.276 54.3536 150.21 54.1864 150.21 53.9821V49.4965C149.757 49.868 149.19 50.1466 148.51 50.3324C147.83 50.5181 147.065 50.611 146.216 50.611C144.478 50.611 143.137 50.1931 142.193 49.3572C141.248 48.5028 140.776 47.1377 140.776 45.2617V40.8876C140.776 40.6833 140.842 40.5161 140.974 40.3861C141.107 40.2561 141.267 40.1911 141.456 40.1911H144.402C144.591 40.1911 144.752 40.2561 144.884 40.3861C145.016 40.5161 145.082 40.6833 145.082 40.8876V45.0388C145.082 45.7446 145.262 46.2461 145.621 46.5433C145.998 46.8405 146.603 46.9891 147.434 46.9891C148.246 46.9891 148.907 46.8776 149.417 46.6547C149.946 46.4133 150.21 46.0325 150.21 45.5125V40.8876C150.21 40.6833 150.276 40.5161 150.408 40.3861C150.541 40.2561 150.701 40.1911 150.89 40.1911H153.95C154.157 40.1911 154.327 40.2561 154.46 40.3861C154.592 40.5161 154.658 40.6833 154.658 40.8876V53.9821C154.658 54.1864 154.592 54.3536 154.46 54.4836C154.327 54.6136 154.157 54.6786 153.95 54.6786H150.89Z" fill="#282828"/>
<path d="M162.642 54.9572C161.641 54.9572 160.744 54.7715 159.951 54.4C159.157 54.01 158.525 53.4899 158.052 52.8398C157.58 52.1897 157.344 51.4654 157.344 50.6667C157.344 49.348 157.882 48.3078 158.959 47.5463C160.054 46.7848 161.49 46.2647 163.265 45.9861L166.976 45.4568V44.9553C166.976 44.2309 166.806 43.6737 166.466 43.2836C166.126 42.8936 165.532 42.6985 164.682 42.6985C164.058 42.6985 163.558 42.8193 163.18 43.0607C162.802 43.3022 162.51 43.6179 162.302 44.008C162.151 44.2494 161.934 44.3702 161.65 44.3702H158.959C158.751 44.3702 158.591 44.3145 158.477 44.203C158.364 44.073 158.317 43.9244 158.336 43.7572C158.336 43.4415 158.458 43.07 158.704 42.6428C158.95 42.2156 159.327 41.7977 159.837 41.3891C160.347 40.9619 160.999 40.609 161.792 40.3304C162.585 40.0518 163.558 39.9125 164.71 39.9125C165.9 39.9125 166.92 40.0518 167.77 40.3304C168.62 40.609 169.299 40.999 169.809 41.5005C170.319 42.002 170.697 42.5871 170.943 43.2558C171.188 43.9058 171.311 44.6116 171.311 45.3732V53.9821C171.311 54.1864 171.245 54.3536 171.113 54.4836C170.98 54.6136 170.81 54.6786 170.603 54.6786H167.826C167.637 54.6786 167.477 54.6136 167.345 54.4836C167.212 54.3536 167.146 54.1864 167.146 53.9821V52.9513C166.901 53.3042 166.57 53.6385 166.155 53.9542C165.739 54.2514 165.239 54.4929 164.653 54.6786C164.087 54.8644 163.416 54.9572 162.642 54.9572ZM163.775 52.0597C164.398 52.0597 164.956 51.9297 165.447 51.6697C165.938 51.4096 166.325 51.0103 166.608 50.4717C166.891 49.933 167.033 49.2551 167.033 48.4378V47.9642L164.398 48.3821C163.378 48.5493 162.632 48.8 162.16 49.1344C161.688 49.4687 161.452 49.8773 161.452 50.3602C161.452 50.7131 161.556 51.0196 161.764 51.2796C161.99 51.5397 162.283 51.7347 162.642 51.8647C163.001 51.9947 163.378 52.0597 163.775 52.0597Z" fill="#282828"/>
<path d="M182.192 38.2966C181.04 38.2966 180.105 38.1201 179.387 37.7672C178.688 37.4143 178.178 36.95 177.857 36.3742C177.555 35.7798 177.404 35.1297 177.404 34.4239C177.404 34.2753 177.442 34.1546 177.517 34.0617C177.612 33.9503 177.753 33.8946 177.942 33.8946H179.869C180.039 33.8946 180.171 33.9503 180.265 34.0617C180.36 34.1546 180.407 34.2753 180.407 34.4239C180.407 34.8325 180.53 35.1947 180.775 35.5105C181.021 35.8263 181.493 35.9841 182.192 35.9841C182.91 35.9841 183.382 35.8263 183.608 35.5105C183.854 35.1947 183.977 34.8325 183.977 34.4239C183.977 34.2753 184.024 34.1546 184.118 34.0617C184.213 33.9503 184.345 33.8946 184.515 33.8946H186.441C186.611 33.8946 186.744 33.9503 186.838 34.0617C186.932 34.1546 186.98 34.2753 186.98 34.4239C186.98 35.1297 186.819 35.7798 186.498 36.3742C186.196 36.95 185.695 37.4143 184.997 37.7672C184.298 38.1201 183.363 38.2966 182.192 38.2966Z" fill="#282828"/>
<path d="M192.132 57.7433C191.944 57.7433 191.783 57.6783 191.651 57.5483C191.519 57.4183 191.452 57.2511 191.452 57.0468V52.0876C191.452 51.8833 191.519 51.7161 191.651 51.5861C191.783 51.4561 191.944 51.3911 192.132 51.3911H192.387C192.878 51.3911 193.266 51.1403 193.549 50.6388C193.851 50.1373 194.068 49.3944 194.2 48.41C194.333 47.4256 194.399 46.1904 194.399 44.7045V40.8876C194.399 40.6833 194.465 40.5161 194.597 40.3861C194.729 40.2561 194.89 40.1911 195.079 40.1911H205.674C205.882 40.1911 206.052 40.2561 206.184 40.3861C206.316 40.5161 206.382 40.6833 206.382 40.8876V51.3632H207.629C207.818 51.3632 207.978 51.4282 208.111 51.5582C208.243 51.6882 208.309 51.8554 208.309 52.0597V57.0468C208.309 57.2511 208.243 57.4183 208.111 57.5483C207.978 57.6783 207.818 57.7433 207.629 57.7433H204.796C204.588 57.7433 204.418 57.6783 204.286 57.5483C204.154 57.4183 204.088 57.2511 204.088 57.0468V54.6786H195.674V57.0468C195.674 57.2511 195.608 57.4183 195.475 57.5483C195.343 57.6783 195.173 57.7433 194.965 57.7433H192.132ZM197.26 51.3911L202.161 51.3632V43.4786H198.422V45.1781C198.422 46.7012 198.318 47.9735 198.11 48.995C197.921 50.0166 197.638 50.8153 197.26 51.3911Z" fill="#282828"/>
<path d="M227.904 54.6786C227.715 54.6786 227.554 54.6136 227.422 54.4836C227.29 54.3536 227.224 54.1864 227.224 53.9821V40.8876C227.224 40.6833 227.29 40.5161 227.422 40.3861C227.554 40.2561 227.715 40.1911 227.904 40.1911H230.595C230.803 40.1911 230.973 40.2561 231.105 40.3861C231.237 40.5161 231.303 40.6833 231.303 40.8876V51.3911H235.071V40.8876C235.071 40.6833 235.137 40.5161 235.269 40.3861C235.402 40.2561 235.562 40.1911 235.751 40.1911H238.216C238.423 40.1911 238.593 40.2561 238.726 40.3861C238.858 40.5161 238.924 40.6833 238.924 40.8876V51.3911H242.692V40.8876C242.692 40.6833 242.758 40.5161 242.89 40.3861C243.022 40.2561 243.192 40.1911 243.4 40.1911H246.091C246.28 40.1911 246.441 40.2561 246.573 40.3861C246.705 40.5161 246.771 40.6833 246.771 40.8876V53.9821C246.771 54.1864 246.705 54.3536 246.573 54.4836C246.441 54.6136 246.28 54.6786 246.091 54.6786H227.904Z" fill="#282828"/>
<path d="M251.115 54.6786C250.927 54.6786 250.766 54.6136 250.634 54.4836C250.502 54.3536 250.435 54.1864 250.435 53.9821V40.8876C250.435 40.6833 250.502 40.5161 250.634 40.3861C250.766 40.2561 250.927 40.1911 251.115 40.1911H253.948C254.156 40.1911 254.326 40.2561 254.458 40.3861C254.591 40.5161 254.657 40.6833 254.657 40.8876V45.6796H260.408V40.8876C260.408 40.6833 260.474 40.5161 260.606 40.3861C260.738 40.2561 260.908 40.1911 261.116 40.1911H263.949C264.138 40.1911 264.298 40.2561 264.43 40.3861C264.563 40.5161 264.629 40.6833 264.629 40.8876V53.9821C264.629 54.1864 264.563 54.3536 264.43 54.4836C264.298 54.6136 264.138 54.6786 263.949 54.6786H261.116C260.908 54.6786 260.738 54.6136 260.606 54.4836C260.474 54.3536 260.408 54.1864 260.408 53.9821V48.9672H254.657V53.9821C254.657 54.1864 254.591 54.3536 254.458 54.4836C254.326 54.6136 254.156 54.6786 253.948 54.6786H251.115Z" fill="#282828"/>
<path d="M285.501 54.6786C285.331 54.6786 285.18 54.6229 285.048 54.5114C284.935 54.3814 284.878 54.2328 284.878 54.0657C284.878 54.01 284.888 53.945 284.907 53.8707C284.944 53.7778 284.992 53.6942 285.048 53.6199L289.836 47.2398L285.445 41.2498C285.388 41.1755 285.341 41.1012 285.303 41.0269C285.284 40.9526 285.275 40.8783 285.275 40.804C285.275 40.6369 285.331 40.4976 285.445 40.3861C285.577 40.2561 285.728 40.1911 285.898 40.1911H288.844C289.071 40.1911 289.241 40.2468 289.354 40.3582C289.487 40.4697 289.581 40.5719 289.638 40.6647L292.556 44.5652L295.474 40.6926C295.549 40.5997 295.644 40.4976 295.757 40.3861C295.87 40.2561 296.05 40.1911 296.295 40.1911H299.1C299.27 40.1911 299.412 40.2561 299.525 40.3861C299.657 40.4976 299.723 40.6369 299.723 40.804C299.723 40.8783 299.714 40.9526 299.695 41.0269C299.676 41.1012 299.629 41.1755 299.553 41.2498L295.077 47.2677L299.921 53.6199C299.978 53.6942 300.016 53.7685 300.035 53.8428C300.073 53.9171 300.091 53.9914 300.091 54.0657C300.091 54.2328 300.025 54.3814 299.893 54.5114C299.78 54.6229 299.638 54.6786 299.468 54.6786H296.38C296.172 54.6786 296.012 54.6322 295.899 54.5393C295.785 54.4279 295.691 54.3257 295.615 54.2328L292.471 50.1095L289.269 54.2328C289.213 54.3071 289.128 54.4 289.014 54.5114C288.901 54.6229 288.731 54.6786 288.504 54.6786H285.501Z" fill="#282828"/>
<path d="M307.823 54.6786C307.653 54.6786 307.511 54.6229 307.398 54.5114C307.284 54.3814 307.228 54.2421 307.228 54.0935C307.228 54.0007 307.237 53.9171 307.256 53.8428L313.999 35.9284C314.055 35.7241 314.169 35.5476 314.339 35.399C314.509 35.2505 314.745 35.1762 315.047 35.1762H318.673C318.975 35.1762 319.211 35.2505 319.381 35.399C319.551 35.5476 319.665 35.7241 319.721 35.9284L326.464 53.8428C326.483 53.9171 326.492 54.0007 326.492 54.0935C326.492 54.2421 326.436 54.3814 326.322 54.5114C326.209 54.6229 326.067 54.6786 325.897 54.6786H322.951C322.668 54.6786 322.46 54.6136 322.328 54.4836C322.195 54.3536 322.111 54.2329 322.073 54.1214L320.855 51.001H312.865L311.647 54.1214C311.609 54.2329 311.524 54.3536 311.392 54.4836C311.26 54.6136 311.052 54.6786 310.769 54.6786H307.823ZM313.914 47.407H319.778L316.86 39.3831L313.914 47.407Z" fill="#282828"/>
<path d="M329.3 54.6786C329.111 54.6786 328.95 54.6136 328.818 54.4836C328.686 54.3536 328.62 54.1864 328.62 53.9821V40.8876C328.62 40.6833 328.686 40.5161 328.818 40.3861C328.95 40.2561 329.111 40.1911 329.3 40.1911H335.759C337.874 40.1911 339.423 40.5626 340.405 41.3055C341.406 42.0299 341.907 43.0143 341.907 44.2587C341.907 45.0017 341.765 45.596 341.482 46.0418C341.198 46.469 340.802 46.8405 340.292 47.1562C340.934 47.4534 341.434 47.8992 341.793 48.4936C342.171 49.0693 342.36 49.7194 342.36 50.4438C342.36 51.7625 341.841 52.8027 340.802 53.5642C339.763 54.3071 338.205 54.6786 336.127 54.6786H329.3ZM332.699 51.9483H335.872C336.533 51.9483 337.062 51.8275 337.459 51.5861C337.874 51.3261 338.082 50.9267 338.082 50.3881C338.082 49.8309 337.893 49.4315 337.515 49.1901C337.138 48.9486 336.59 48.8279 335.872 48.8279H332.699V51.9483ZM332.699 45.9861H335.759C336.439 45.9861 336.977 45.8468 337.374 45.5682C337.77 45.2896 337.969 44.8902 337.969 44.3702C337.969 43.8315 337.77 43.4601 337.374 43.2558C336.977 43.0329 336.439 42.9214 335.759 42.9214H332.699V45.9861Z" fill="#282828"/>
<path d="M349.917 54.6786C349.709 54.6786 349.539 54.6136 349.407 54.4836C349.275 54.3536 349.209 54.1864 349.209 53.9821V43.4786H344.761C344.553 43.4786 344.383 43.4136 344.251 43.2836C344.119 43.1536 344.053 42.9864 344.053 42.7821V40.8876C344.053 40.6833 344.119 40.5161 344.251 40.3861C344.383 40.2561 344.553 40.1911 344.761 40.1911H357.821C358.029 40.1911 358.199 40.2561 358.331 40.3861C358.463 40.5161 358.529 40.6833 358.529 40.8876V42.7821C358.529 42.9864 358.463 43.1536 358.331 43.2836C358.199 43.4136 358.029 43.4786 357.821 43.4786H353.373V53.9821C353.373 54.1864 353.307 54.3536 353.175 54.4836C353.043 54.6136 352.882 54.6786 352.693 54.6786H349.917Z" fill="#282828"/>
<path d="M367.455 54.9572C365.887 54.9572 364.575 54.7065 363.517 54.205C362.46 53.6849 361.647 52.9513 361.081 52.004C360.533 51.0567 360.231 49.9516 360.174 48.6886C360.155 48.3171 360.146 47.8992 360.146 47.4349C360.146 46.9519 360.155 46.534 360.174 46.1811C360.231 44.8995 360.552 43.7944 361.137 42.8657C361.723 41.9184 362.544 41.1941 363.602 40.6926C364.66 40.1725 365.944 39.9125 367.455 39.9125C368.947 39.9125 370.222 40.1725 371.28 40.6926C372.337 41.1941 373.159 41.9184 373.744 42.8657C374.33 43.7944 374.651 44.8995 374.708 46.1811C374.745 46.534 374.764 46.9519 374.764 47.4349C374.764 47.8992 374.745 48.3171 374.708 48.6886C374.651 49.9516 374.339 51.0567 373.773 52.004C373.225 52.9513 372.422 53.6849 371.365 54.205C370.307 54.7065 369.004 54.9572 367.455 54.9572ZM367.455 51.8926C368.38 51.8926 369.079 51.6139 369.552 51.0567C370.024 50.4809 370.279 49.6451 370.316 48.5493C370.335 48.2707 370.345 47.8992 370.345 47.4349C370.345 46.9705 370.335 46.599 370.316 46.3204C370.279 45.2432 370.024 44.4166 369.552 43.8408C369.079 43.265 368.38 42.9771 367.455 42.9771C366.53 42.9771 365.821 43.265 365.33 43.8408C364.858 44.4166 364.603 45.2432 364.565 46.3204C364.546 46.599 364.537 46.9705 364.537 47.4349C364.537 47.8992 364.546 48.2707 364.565 48.5493C364.603 49.6451 364.858 50.4809 365.33 51.0567C365.821 51.6139 366.53 51.8926 367.455 51.8926Z" fill="#282828"/>
<path d="M378.435 59.9721C378.228 59.9721 378.058 59.9071 377.925 59.7771C377.793 59.6471 377.727 59.4799 377.727 59.2756V40.8876C377.727 40.6833 377.793 40.5161 377.925 40.3861C378.058 40.2561 378.228 40.1911 378.435 40.1911H381.127C381.335 40.1911 381.504 40.2561 381.637 40.3861C381.769 40.5161 381.835 40.6833 381.835 40.8876V41.9463C382.288 41.3519 382.874 40.869 383.591 40.4976C384.309 40.1075 385.206 39.9125 386.283 39.9125C387.265 39.9125 388.115 40.0704 388.833 40.3861C389.569 40.6833 390.183 41.1198 390.674 41.6956C391.184 42.2528 391.571 42.9307 391.836 43.7294C392.119 44.5281 392.279 45.4289 392.317 46.4319C392.336 46.7848 392.345 47.1191 392.345 47.4349C392.345 47.7506 392.336 48.0942 392.317 48.4657C392.298 49.413 392.147 50.2859 391.864 51.0846C391.599 51.8833 391.212 52.5705 390.702 53.1463C390.192 53.7221 389.569 54.1678 388.833 54.4836C388.115 54.7994 387.265 54.9572 386.283 54.9572C385.32 54.9572 384.479 54.7901 383.761 54.4557C383.063 54.1028 382.487 53.6292 382.033 53.0348V59.2756C382.033 59.4799 381.967 59.6471 381.835 59.7771C381.703 59.9071 381.542 59.9721 381.353 59.9721H378.435ZM385.008 51.6139C385.726 51.6139 386.292 51.4654 386.708 51.1682C387.123 50.8524 387.416 50.4438 387.586 49.9423C387.775 49.4408 387.888 48.8929 387.926 48.2985C387.964 47.7227 387.964 47.147 387.926 46.5712C387.888 45.9768 387.775 45.4289 387.586 44.9274C387.416 44.4259 387.123 44.0266 386.708 43.7294C386.292 43.4136 385.726 43.2558 385.008 43.2558C384.309 43.2558 383.742 43.4136 383.308 43.7294C382.874 44.0451 382.562 44.4445 382.373 44.9274C382.184 45.4103 382.071 45.9304 382.033 46.4876C382.014 46.8219 382.005 47.1655 382.005 47.5184C382.005 47.8713 382.014 48.2242 382.033 48.5771C382.052 49.0972 382.166 49.5894 382.373 50.0538C382.6 50.4995 382.921 50.871 383.336 51.1682C383.771 51.4654 384.328 51.6139 385.008 51.6139Z" fill="#282828"/>
<path d="M396.03 54.6786C395.841 54.6786 395.681 54.6136 395.549 54.4836C395.417 54.3536 395.35 54.1864 395.35 53.9821V40.8876C395.35 40.6833 395.417 40.5161 395.549 40.3861C395.681 40.2561 395.841 40.1911 396.03 40.1911H398.863C399.071 40.1911 399.241 40.2561 399.373 40.3861C399.506 40.5161 399.572 40.6833 399.572 40.8876V53.9821C399.572 54.1864 399.506 54.3536 399.373 54.4836C399.241 54.6136 399.071 54.6786 398.863 54.6786H396.03ZM395.945 37.9622C395.757 37.9622 395.596 37.8972 395.464 37.7672C395.332 37.6372 395.265 37.47 395.265 37.2657V35.0369C395.265 34.8325 395.332 34.6654 395.464 34.5354C395.596 34.3868 395.757 34.3125 395.945 34.3125H398.92C399.128 34.3125 399.298 34.3868 399.43 34.5354C399.581 34.6654 399.657 34.8325 399.657 35.0369V37.2657C399.657 37.47 399.581 37.6372 399.43 37.7672C399.298 37.8972 399.128 37.9622 398.92 37.9622H395.945Z" fill="#282828"/>
<path d="M403.805 54.6786C403.616 54.6786 403.455 54.6136 403.323 54.4836C403.191 54.3536 403.125 54.1864 403.125 53.9821V40.8876C403.125 40.6833 403.191 40.5161 403.323 40.3861C403.455 40.2561 403.616 40.1911 403.805 40.1911H410.264C412.379 40.1911 413.928 40.5626 414.91 41.3055C415.911 42.0299 416.411 43.0143 416.411 44.2587C416.411 45.0017 416.27 45.596 415.986 46.0418C415.703 46.469 415.307 46.8405 414.797 47.1562C415.439 47.4534 415.939 47.8992 416.298 48.4936C416.676 49.0693 416.865 49.7194 416.865 50.4438C416.865 51.7625 416.345 52.8027 415.307 53.5642C414.268 54.3071 412.71 54.6786 410.632 54.6786H403.805ZM407.204 51.9483H410.377C411.038 51.9483 411.567 51.8275 411.964 51.5861C412.379 51.3261 412.587 50.9267 412.587 50.3881C412.587 49.8309 412.398 49.4315 412.02 49.1901C411.643 48.9486 411.095 48.8279 410.377 48.8279H407.204V51.9483ZM407.204 45.9861H410.264C410.944 45.9861 411.482 45.8468 411.879 45.5682C412.275 45.2896 412.474 44.8902 412.474 44.3702C412.474 43.8315 412.275 43.4601 411.879 43.2558C411.482 43.0329 410.944 42.9214 410.264 42.9214H407.204V45.9861Z" fill="#282828"/>
<path d="M175.393 54.6786C175.223 54.6786 175.072 54.6136 174.939 54.4836C174.807 54.3536 174.741 54.1957 174.741 54.01V40.8876C174.741 40.6833 174.807 40.5161 174.939 40.3861C175.072 40.2561 175.232 40.1911 175.421 40.1911H178.254C178.462 40.1911 178.632 40.2561 178.764 40.3861C178.896 40.5161 178.962 40.6833 178.962 40.8876V49.2711L185.223 40.6369C185.318 40.5068 185.422 40.4047 185.535 40.3304C185.667 40.2375 185.828 40.1911 186.016 40.1911H188.566C188.755 40.1911 188.916 40.2561 189.048 40.3861C189.18 40.5161 189.246 40.6647 189.246 40.8319V53.9821C189.246 54.1864 189.18 54.3536 189.048 54.4836C188.916 54.6136 188.746 54.6786 188.538 54.6786H185.705C185.516 54.6786 185.355 54.6136 185.223 54.4836C185.091 54.3536 185.025 54.1864 185.025 53.9821V45.602L178.736 54.2328C178.66 54.3629 178.556 54.4743 178.424 54.5672C178.292 54.6415 178.141 54.6786 177.971 54.6786H175.393Z" fill="#282828"/>
<path d="M211.98 60C211.773 60 211.603 59.9257 211.471 59.7771C211.338 59.6471 211.272 59.4892 211.272 59.3035V57.3811C211.272 57.1954 211.338 57.0375 211.471 56.9075C211.603 56.7775 211.773 56.7124 211.98 56.7124H212.915C213.274 56.7124 213.567 56.6381 213.794 56.4896C214.039 56.3595 214.256 56.1367 214.445 55.8209C214.634 55.5052 214.851 55.0687 215.097 54.5114L215.313 53.9962L209.714 41.1662C209.639 41.0176 209.601 40.8969 209.601 40.804C209.62 40.6369 209.686 40.4976 209.799 40.3861C209.931 40.2561 210.082 40.1911 210.252 40.1911H212.972C213.199 40.1911 213.369 40.2561 213.482 40.3861C213.595 40.4976 213.68 40.6183 213.737 40.7483L217.254 49.3732L220.876 40.7483C220.933 40.5997 221.018 40.4697 221.131 40.3582C221.263 40.2468 221.443 40.1911 221.669 40.1911H224.276C224.427 40.1911 224.559 40.2561 224.672 40.3861C224.805 40.4976 224.871 40.6276 224.871 40.7762C224.871 40.8133 224.861 40.869 224.842 40.9433C224.842 40.999 224.823 41.0733 224.786 41.1662L219.403 53.8707C219.044 54.7251 218.666 55.5237 218.27 56.2667C217.892 57.0096 217.477 57.6597 217.023 58.2169C216.57 58.7741 216.032 59.2106 215.408 59.5264C214.804 59.8421 214.105 60 213.312 60H211.98Z" fill="#282828"/>
<path d="M268.932 54.6786C268.762 54.6786 268.611 54.6136 268.478 54.4836C268.346 54.3536 268.28 54.1957 268.28 54.01V40.8876C268.28 40.6833 268.346 40.5161 268.478 40.3861C268.611 40.2561 268.771 40.1911 268.96 40.1911H271.793C272.001 40.1911 272.171 40.2561 272.303 40.3861C272.435 40.5161 272.501 40.6833 272.501 40.8876V49.2711L278.762 40.6369C278.857 40.5068 278.961 40.4047 279.074 40.3304C279.206 40.2375 279.367 40.1911 279.555 40.1911H282.105C282.294 40.1911 282.455 40.2561 282.587 40.3861C282.719 40.5161 282.785 40.6647 282.785 40.8319V53.9821C282.785 54.1864 282.719 54.3536 282.587 54.4836C282.455 54.6136 282.285 54.6786 282.077 54.6786H279.244C279.055 54.6786 278.894 54.6136 278.762 54.4836C278.63 54.3536 278.564 54.1864 278.564 53.9821V45.602L272.275 54.2328C272.199 54.3629 272.095 54.4743 271.963 54.5672C271.831 54.6415 271.68 54.6786 271.51 54.6786H268.932Z" fill="#282828"/>
<path d="M80.2767 3.38503e-10H82.1538V60H80.2767V3.38503e-10Z" fill="#282828"/>
</svg>
