<svg width="300" height="254" viewBox="0 0 300 254" fill="none" xmlns="http://www.w3.org/2000/svg">
<path d="M0.655247 217.542C0.480514 217.542 0.323255 217.481 0.183469 217.359C0.0611564 217.237 0 217.079 0 216.887V199.851C0 199.659 0.0611564 199.501 0.183469 199.379C0.323255 199.257 0.480514 199.196 0.655247 199.196H3.09276C3.35486 199.196 3.54707 199.265 3.66938 199.405C3.80917 199.545 3.90527 199.65 3.95769 199.72L8.78031 208.605L13.6553 199.72C13.6903 199.65 13.7689 199.545 13.8912 199.405C14.031 199.265 14.232 199.196 14.4941 199.196H16.9316C17.1238 199.196 17.281 199.257 17.4034 199.379C17.5257 199.501 17.5868 199.659 17.5868 199.851V216.887C17.5868 217.079 17.5257 217.237 17.4034 217.359C17.281 217.481 17.1238 217.542 16.9316 217.542H14.2582C14.0834 217.542 13.9349 217.481 13.8126 217.359C13.6903 217.237 13.6291 217.079 13.6291 216.887V206.298L10.3005 212.536C10.2131 212.694 10.0995 212.833 9.95975 212.956C9.81997 213.078 9.6365 213.139 9.40934 213.139H8.17748C7.95033 213.139 7.76686 213.078 7.62707 212.956C7.48729 212.833 7.37371 212.694 7.28634 212.536L3.95769 206.298V216.887C3.95769 217.079 3.89653 217.237 3.77422 217.359C3.65191 217.481 3.50339 217.542 3.32865 217.542H0.655247Z" fill="#282828"/>
<path d="M43.75 217.804C42.4745 217.804 41.3474 217.569 40.3689 217.097C39.4079 216.625 38.6478 215.944 38.0887 215.052C37.5295 214.144 37.2237 213.06 37.1713 211.802C37.1539 211.523 37.1451 211.173 37.1451 210.754C37.1451 210.317 37.1539 209.959 37.1713 209.679C37.2237 208.404 37.5208 207.321 38.0625 206.429C38.6216 205.521 39.3904 204.831 40.3689 204.359C41.3474 203.887 42.4745 203.651 43.75 203.651C44.9207 203.651 45.9167 203.817 46.7379 204.149C47.5592 204.464 48.2319 204.866 48.7561 205.355C49.2803 205.844 49.6647 206.359 49.9093 206.901C50.1714 207.425 50.3112 207.888 50.3287 208.29C50.3462 208.465 50.285 208.622 50.1452 208.762C50.0229 208.884 49.8744 208.946 49.6996 208.946H46.8952C46.7205 208.946 46.5807 208.902 46.4758 208.814C46.3885 208.71 46.3011 208.57 46.2137 208.395C45.9691 207.784 45.6546 207.347 45.2702 207.085C44.8858 206.823 44.4053 206.691 43.8286 206.691C43.0423 206.691 42.422 206.945 41.9677 207.452C41.5134 207.958 41.2688 208.745 41.2339 209.81C41.2164 210.492 41.2164 211.112 41.2339 211.671C41.2863 212.755 41.5309 213.541 41.9677 214.03C42.422 214.519 43.0423 214.764 43.8286 214.764C44.4402 214.764 44.9295 214.633 45.2964 214.371C45.6633 214.109 45.9691 213.672 46.2137 213.06C46.2836 212.886 46.371 212.755 46.4758 212.667C46.5807 212.562 46.7205 212.51 46.8952 212.51H49.6996C49.8744 212.51 50.0229 212.58 50.1452 212.72C50.285 212.842 50.3462 212.991 50.3287 213.165C50.3112 213.462 50.2238 213.812 50.0666 214.214C49.9268 214.616 49.6909 215.026 49.3589 215.446C49.0444 215.865 48.6338 216.258 48.1271 216.625C47.6203 216.974 47 217.263 46.2662 217.49C45.5497 217.7 44.711 217.804 43.75 217.804Z" fill="#282828"/>
<path d="M57.0405 217.542C56.8482 217.542 56.691 217.481 56.5687 217.359C56.4464 217.237 56.3852 217.079 56.3852 216.887V207.006H52.2703C52.0781 207.006 51.9208 206.945 51.7985 206.823C51.6762 206.7 51.615 206.543 51.615 206.351V204.569C51.615 204.376 51.6762 204.219 51.7985 204.097C51.9208 203.974 52.0781 203.913 52.2703 203.913H64.353C64.5452 203.913 64.7025 203.974 64.8248 204.097C64.9471 204.219 65.0083 204.376 65.0083 204.569V206.351C65.0083 206.543 64.9471 206.7 64.8248 206.823C64.7025 206.945 64.5452 207.006 64.353 207.006H60.2381V216.887C60.2381 217.079 60.1769 217.237 60.0546 217.359C59.9323 217.481 59.7838 217.542 59.609 217.542H57.0405Z" fill="#282828"/>
<path d="M73.1087 217.804C71.0993 217.804 69.5005 217.245 68.3123 216.127C67.1416 215.009 66.5213 213.384 66.4514 211.252C66.4514 211.112 66.4514 210.929 66.4514 210.702C66.4514 210.457 66.4514 210.265 66.4514 210.125C66.5213 208.78 66.8271 207.626 67.3688 206.665C67.9105 205.687 68.6705 204.944 69.649 204.437C70.6275 203.913 71.772 203.651 73.0825 203.651C74.5503 203.651 75.7734 203.957 76.7519 204.569C77.7479 205.163 78.4905 205.984 78.9798 207.032C79.4865 208.063 79.7398 209.251 79.7398 210.597V211.2C79.7398 211.374 79.67 211.523 79.5302 211.645C79.4079 211.767 79.2593 211.829 79.0846 211.829H70.514C70.514 211.846 70.514 211.881 70.514 211.933C70.514 211.968 70.514 212.003 70.514 212.038C70.5314 212.597 70.6363 213.113 70.8285 213.585C71.0382 214.039 71.3265 214.406 71.6934 214.685C72.0778 214.965 72.5321 215.105 73.0563 215.105C73.4932 215.105 73.8514 215.044 74.1309 214.921C74.4105 214.799 74.6377 214.65 74.8124 214.476C75.0046 214.301 75.1444 214.153 75.2317 214.03C75.389 213.855 75.5113 213.751 75.5987 213.716C75.7035 213.663 75.8608 213.637 76.0705 213.637H78.7963C78.971 213.637 79.1108 213.689 79.2156 213.794C79.338 213.882 79.3904 214.013 79.3729 214.187C79.3554 214.467 79.2069 214.816 78.9273 215.236C78.6652 215.638 78.2721 216.04 77.7479 216.441C77.2237 216.826 76.5684 217.149 75.7822 217.411C75.0133 217.673 74.1222 217.804 73.1087 217.804ZM70.514 209.443H75.6511V209.391C75.6511 208.762 75.5463 208.22 75.3366 207.766C75.1444 207.294 74.8561 206.927 74.4717 206.665C74.0872 206.403 73.6242 206.272 73.0825 206.272C72.5409 206.272 72.0778 206.403 71.6934 206.665C71.309 206.927 71.012 207.294 70.8023 207.766C70.6101 208.22 70.514 208.762 70.514 209.391V209.443Z" fill="#282828"/>
<path d="M93.7611 220.687C93.5864 220.687 93.4378 220.626 93.3155 220.504C93.1932 220.382 93.1321 220.224 93.1321 220.032V217.542H82.9888C82.8141 217.542 82.6656 217.481 82.5433 217.359C82.421 217.237 82.3598 217.079 82.3598 216.887V204.569C82.3598 204.376 82.421 204.219 82.5433 204.097C82.6656 203.974 82.8141 203.913 82.9888 203.913H85.6098C85.802 203.913 85.9593 203.974 86.0816 204.097C86.2039 204.219 86.2651 204.376 86.2651 204.569V214.45H91.3236V204.569C91.3236 204.376 91.3847 204.219 91.507 204.097C91.6294 203.974 91.7866 203.913 91.9788 203.913H94.5998C94.7746 203.913 94.9231 203.974 95.0454 204.097C95.1677 204.219 95.2288 204.376 95.2288 204.569V214.45H96.3821C96.5743 214.45 96.7316 214.511 96.8539 214.633C96.9762 214.755 97.0373 214.913 97.0373 215.105V220.032C97.0373 220.224 96.9762 220.382 96.8539 220.504C96.7316 220.626 96.5743 220.687 96.3821 220.687H93.7611Z" fill="#282828"/>
<path d="M99.9331 217.542C99.7584 217.542 99.6099 217.481 99.4875 217.359C99.3652 217.237 99.3041 217.079 99.3041 216.887V204.569C99.3041 204.376 99.3652 204.219 99.4875 204.097C99.6099 203.974 99.7584 203.913 99.9331 203.913H102.58C102.755 203.913 102.904 203.974 103.026 204.097C103.148 204.219 103.209 204.376 103.209 204.569V208.159H105.83C107.595 208.159 108.941 208.587 109.867 209.443C110.793 210.282 111.256 211.435 111.256 212.903C111.256 214.441 110.767 215.603 109.788 216.389C108.81 217.158 107.42 217.542 105.621 217.542H99.9331ZM103.157 214.79H105.49C106.258 214.79 106.818 214.65 107.167 214.371C107.534 214.074 107.717 213.585 107.717 212.903C107.717 212.239 107.543 211.741 107.193 211.409C106.844 211.077 106.276 210.911 105.49 210.911H103.157V214.79Z" fill="#282828"/>
<path d="M114.19 217.542C114.015 217.542 113.867 217.481 113.744 217.359C113.622 217.237 113.561 217.079 113.561 216.887V204.569C113.561 204.376 113.622 204.219 113.744 204.097C113.867 203.974 114.015 203.913 114.19 203.913H116.758C116.951 203.913 117.108 203.974 117.23 204.097C117.353 204.219 117.414 204.376 117.414 204.569V209.077H119.065L122.105 204.333C122.158 204.228 122.236 204.132 122.341 204.044C122.463 203.957 122.621 203.913 122.813 203.913H125.67C125.827 203.913 125.958 203.966 126.063 204.071C126.185 204.158 126.246 204.271 126.246 204.411C126.246 204.464 126.229 204.525 126.194 204.595C126.176 204.665 126.15 204.726 126.115 204.778L122.42 210.492L126.692 216.704C126.762 216.808 126.797 216.922 126.797 217.044C126.797 217.184 126.744 217.306 126.64 217.411C126.535 217.499 126.404 217.542 126.246 217.542H123.075C122.9 217.542 122.752 217.507 122.629 217.437C122.525 217.35 122.428 217.245 122.341 217.123L119.039 212.196H117.414V216.887C117.414 217.079 117.353 217.237 117.23 217.359C117.108 217.481 116.951 217.542 116.758 217.542H114.19Z" fill="#282828"/>
<path d="M135.05 217.804C133.041 217.804 131.442 217.245 130.254 216.127C129.083 215.009 128.463 213.384 128.393 211.252C128.393 211.112 128.393 210.929 128.393 210.702C128.393 210.457 128.393 210.265 128.393 210.125C128.463 208.78 128.768 207.626 129.31 206.665C129.852 205.687 130.612 204.944 131.59 204.437C132.569 203.913 133.713 203.651 135.024 203.651C136.492 203.651 137.715 203.957 138.693 204.569C139.689 205.163 140.432 205.984 140.921 207.032C141.428 208.063 141.681 209.251 141.681 210.597V211.2C141.681 211.374 141.611 211.523 141.471 211.645C141.349 211.767 141.201 211.829 141.026 211.829H132.455C132.455 211.846 132.455 211.881 132.455 211.933C132.455 211.968 132.455 212.003 132.455 212.038C132.473 212.597 132.578 213.113 132.77 213.585C132.979 214.039 133.268 214.406 133.635 214.685C134.019 214.965 134.473 215.105 134.998 215.105C135.434 215.105 135.793 215.044 136.072 214.921C136.352 214.799 136.579 214.65 136.754 214.476C136.946 214.301 137.086 214.153 137.173 214.03C137.33 213.855 137.453 213.751 137.54 213.716C137.645 213.663 137.802 213.637 138.012 213.637H140.738C140.912 213.637 141.052 213.689 141.157 213.794C141.279 213.882 141.332 214.013 141.314 214.187C141.297 214.467 141.148 214.816 140.869 215.236C140.607 215.638 140.213 216.04 139.689 216.441C139.165 216.826 138.51 217.149 137.723 217.411C136.955 217.673 136.063 217.804 135.05 217.804ZM132.455 209.443H137.592V209.391C137.592 208.762 137.488 208.22 137.278 207.766C137.086 207.294 136.797 206.927 136.413 206.665C136.029 206.403 135.565 206.272 135.024 206.272C134.482 206.272 134.019 206.403 133.635 206.665C133.25 206.927 132.953 207.294 132.744 207.766C132.551 208.22 132.455 208.762 132.455 209.391V209.443Z" fill="#282828"/>
<path d="M157.66 217.804C156.07 217.804 154.699 217.542 153.545 217.018C152.392 216.494 151.492 215.708 150.846 214.659C150.199 213.593 149.85 212.257 149.797 210.649C149.78 209.898 149.771 209.155 149.771 208.421C149.771 207.67 149.78 206.91 149.797 206.141C149.85 204.569 150.199 203.249 150.846 202.183C151.51 201.1 152.418 200.288 153.572 199.746C154.742 199.204 156.105 198.933 157.66 198.933C159.198 198.933 160.543 199.204 161.697 199.746C162.867 200.288 163.785 201.1 164.449 202.183C165.113 203.249 165.462 204.569 165.497 206.141C165.532 206.91 165.55 207.67 165.55 208.421C165.55 209.155 165.532 209.898 165.497 210.649C165.445 212.257 165.095 213.593 164.449 214.659C163.802 215.708 162.902 216.494 161.749 217.018C160.596 217.542 159.233 217.804 157.66 217.804ZM157.66 214.423C158.674 214.423 159.504 214.118 160.15 213.506C160.814 212.877 161.164 211.881 161.199 210.518C161.234 209.749 161.251 209.033 161.251 208.369C161.251 207.687 161.234 206.971 161.199 206.22C161.181 205.311 161.015 204.569 160.701 203.992C160.386 203.415 159.967 202.996 159.443 202.734C158.936 202.454 158.342 202.314 157.66 202.314C156.979 202.314 156.376 202.454 155.852 202.734C155.328 202.996 154.908 203.415 154.594 203.992C154.297 204.569 154.131 205.311 154.096 206.22C154.078 206.971 154.07 207.687 154.07 208.369C154.07 209.033 154.078 209.749 154.096 210.518C154.148 211.881 154.498 212.877 155.144 213.506C155.791 214.118 156.629 214.423 157.66 214.423Z" fill="#282828"/>
<path d="M184.41 205.145C184.253 205.145 184.13 205.093 184.043 204.988C183.956 204.883 183.921 204.743 183.938 204.569L184.672 199.798C184.707 199.571 184.794 199.37 184.934 199.196C185.074 199.021 185.284 198.933 185.563 198.933H188.289C188.429 198.933 188.542 198.986 188.63 199.091C188.735 199.196 188.787 199.309 188.787 199.431C188.787 199.554 188.761 199.659 188.708 199.746L186.874 204.464C186.804 204.638 186.699 204.796 186.559 204.935C186.437 205.075 186.245 205.145 185.983 205.145H184.41Z" fill="#282828"/>
<path d="M197.381 217.804C195.249 217.804 193.615 217.298 192.48 216.284C191.361 215.253 190.758 213.786 190.671 211.881C190.671 211.741 190.662 211.514 190.645 211.2C190.645 210.885 190.645 210.571 190.645 210.256C190.662 209.941 190.671 209.714 190.671 209.575C190.758 207.687 191.379 206.228 192.532 205.198C193.685 204.167 195.301 203.651 197.381 203.651C198.796 203.651 199.941 203.861 200.814 204.28C201.688 204.682 202.343 205.206 202.78 205.853C203.217 206.499 203.47 207.172 203.54 207.871C203.558 208.028 203.514 208.15 203.409 208.238C203.304 208.325 203.182 208.369 203.042 208.369H200.578C200.439 208.369 200.325 208.343 200.238 208.29C200.15 208.238 200.072 208.151 200.002 208.028C199.705 207.452 199.347 207.05 198.927 206.823C198.525 206.578 198.01 206.456 197.381 206.456C196.612 206.456 195.983 206.692 195.494 207.163C195.022 207.618 194.777 208.351 194.76 209.365V209.496H198.875C199.049 209.496 199.189 209.557 199.294 209.679C199.399 209.784 199.451 209.915 199.451 210.073V211.357C199.451 211.532 199.399 211.671 199.294 211.776C199.189 211.881 199.049 211.933 198.875 211.933H194.76V212.091C194.777 213.139 195.022 213.89 195.494 214.345C195.965 214.799 196.595 215.026 197.381 215.026C198.045 215.026 198.569 214.913 198.953 214.685C199.355 214.441 199.696 214.03 199.976 213.454C200.045 213.331 200.124 213.253 200.211 213.218C200.299 213.165 200.412 213.139 200.552 213.139H203.095C203.234 213.139 203.357 213.192 203.461 213.296C203.566 213.384 203.61 213.497 203.593 213.637C203.523 214.319 203.269 214.982 202.832 215.629C202.396 216.258 201.732 216.782 200.84 217.202C199.967 217.603 198.814 217.804 197.381 217.804Z" fill="#282828"/>
<path d="M205.977 220.425C205.802 220.425 205.653 220.364 205.531 220.242C205.409 220.12 205.348 219.962 205.348 219.77V215.105C205.348 214.913 205.409 214.755 205.531 214.633C205.653 214.511 205.802 214.45 205.977 214.45H206.212C206.667 214.45 207.025 214.214 207.287 213.742C207.567 213.27 207.768 212.571 207.89 211.645C208.012 210.719 208.073 209.557 208.073 208.159V204.569C208.073 204.376 208.135 204.219 208.257 204.097C208.379 203.974 208.528 203.913 208.702 203.913H218.505C218.697 203.913 218.854 203.974 218.977 204.097C219.099 204.219 219.16 204.376 219.16 204.569V214.423H220.313C220.488 214.423 220.637 214.485 220.759 214.607C220.881 214.729 220.942 214.886 220.942 215.079V219.77C220.942 219.962 220.881 220.12 220.759 220.242C220.637 220.364 220.488 220.425 220.313 220.425H217.692C217.5 220.425 217.343 220.364 217.221 220.242C217.098 220.12 217.037 219.962 217.037 219.77V217.542H209.253V219.77C209.253 219.962 209.192 220.12 209.069 220.242C208.947 220.364 208.79 220.425 208.598 220.425H205.977ZM210.721 214.45L215.255 214.423V207.006H211.795V208.605C211.795 210.038 211.699 211.235 211.507 212.196C211.332 213.157 211.07 213.908 210.721 214.45Z" fill="#282828"/>
<path d="M223.841 217.542C223.667 217.542 223.518 217.481 223.396 217.359C223.273 217.237 223.212 217.079 223.212 216.887V204.569C223.212 204.376 223.273 204.219 223.396 204.097C223.518 203.974 223.667 203.913 223.841 203.913H226.462C226.654 203.913 226.812 203.974 226.934 204.097C227.056 204.219 227.118 204.376 227.118 204.569V209.077H232.438V204.569C232.438 204.376 232.499 204.219 232.622 204.097C232.744 203.974 232.901 203.913 233.093 203.913H235.714C235.889 203.913 236.038 203.974 236.16 204.097C236.282 204.219 236.343 204.376 236.343 204.569V216.887C236.343 217.079 236.282 217.237 236.16 217.359C236.038 217.481 235.889 217.542 235.714 217.542H233.093C232.901 217.542 232.744 217.481 232.622 217.359C232.499 217.237 232.438 217.079 232.438 216.887V212.169H227.118V216.887C227.118 217.079 227.056 217.237 226.934 217.359C226.812 217.481 226.654 217.542 226.462 217.542H223.841Z" fill="#282828"/>
<path d="M243.732 217.804C242.805 217.804 241.975 217.63 241.242 217.28C240.508 216.913 239.922 216.424 239.486 215.812C239.049 215.201 238.83 214.519 238.83 213.768C238.83 212.528 239.328 211.549 240.324 210.833C241.338 210.116 242.666 209.627 244.308 209.365L247.742 208.867V208.395C247.742 207.714 247.584 207.189 247.27 206.823C246.955 206.456 246.405 206.272 245.619 206.272C245.042 206.272 244.579 206.386 244.23 206.613C243.88 206.84 243.609 207.137 243.417 207.504C243.277 207.731 243.076 207.845 242.814 207.845H240.324C240.132 207.845 239.984 207.792 239.879 207.687C239.774 207.565 239.73 207.425 239.748 207.268C239.748 206.971 239.861 206.622 240.088 206.22C240.315 205.818 240.665 205.425 241.137 205.04C241.609 204.638 242.211 204.306 242.945 204.044C243.679 203.782 244.579 203.651 245.645 203.651C246.746 203.651 247.689 203.782 248.475 204.044C249.262 204.306 249.891 204.673 250.363 205.145C250.834 205.617 251.184 206.167 251.411 206.796C251.638 207.408 251.752 208.072 251.752 208.788V216.887C251.752 217.079 251.691 217.237 251.568 217.359C251.446 217.481 251.289 217.542 251.096 217.542H248.528C248.353 217.542 248.205 217.481 248.082 217.359C247.96 217.237 247.899 217.079 247.899 216.887V215.917C247.672 216.249 247.366 216.564 246.982 216.861C246.597 217.14 246.134 217.368 245.592 217.542C245.068 217.717 244.448 217.804 243.732 217.804ZM244.78 215.079C245.357 215.079 245.872 214.956 246.326 214.712C246.781 214.467 247.139 214.091 247.401 213.585C247.663 213.078 247.794 212.44 247.794 211.671V211.226L245.357 211.619C244.413 211.776 243.723 212.012 243.286 212.327C242.849 212.641 242.631 213.025 242.631 213.48C242.631 213.812 242.727 214.1 242.919 214.345C243.129 214.589 243.4 214.773 243.732 214.895C244.064 215.017 244.413 215.079 244.78 215.079Z" fill="#282828"/>
<path d="M255.554 217.542C255.379 217.542 255.231 217.481 255.109 217.359C254.986 217.237 254.925 217.079 254.925 216.887V204.569C254.925 204.376 254.986 204.219 255.109 204.097C255.231 203.974 255.379 203.913 255.554 203.913H258.175C258.367 203.913 258.525 203.974 258.647 204.097C258.769 204.219 258.83 204.376 258.83 204.569V209.077H264.151V204.569C264.151 204.376 264.212 204.219 264.335 204.097C264.457 203.974 264.614 203.913 264.806 203.913H267.427C267.602 203.913 267.751 203.974 267.873 204.097C267.995 204.219 268.056 204.376 268.056 204.569V216.887C268.056 217.079 267.995 217.237 267.873 217.359C267.751 217.481 267.602 217.542 267.427 217.542H264.806C264.614 217.542 264.457 217.481 264.335 217.359C264.212 217.237 264.151 217.079 264.151 216.887V212.169H258.83V216.887C258.83 217.079 258.769 217.237 258.647 217.359C258.525 217.481 258.367 217.542 258.175 217.542H255.554Z" fill="#282828"/>
<path d="M272.063 217.542C271.889 217.542 271.74 217.481 271.618 217.359C271.495 217.237 271.434 217.079 271.434 216.887V204.569C271.434 204.376 271.495 204.219 271.618 204.097C271.74 203.974 271.889 203.913 272.063 203.913H274.684C274.877 203.913 275.034 203.974 275.156 204.097C275.278 204.219 275.34 204.376 275.34 204.569V209.077H280.66V204.569C280.66 204.376 280.721 204.219 280.844 204.097C280.966 203.974 281.123 203.913 281.315 203.913H283.936C284.111 203.913 284.26 203.974 284.382 204.097C284.504 204.219 284.565 204.376 284.565 204.569V216.887C284.565 217.079 284.504 217.237 284.382 217.359C284.26 217.481 284.111 217.542 283.936 217.542H281.315C281.123 217.542 280.966 217.481 280.844 217.359C280.721 217.237 280.66 217.079 280.66 216.887V212.169H275.34V216.887C275.34 217.079 275.278 217.237 275.156 217.359C275.034 217.481 274.877 217.542 274.684 217.542H272.063Z" fill="#282828"/>
<path d="M2.60051 248.994C2.4083 248.994 2.25105 248.933 2.12873 248.81C2.00642 248.688 1.94526 248.531 1.94526 248.339V231.302C1.94526 231.11 2.00642 230.953 2.12873 230.831C2.25105 230.708 2.4083 230.647 2.60051 230.647H10.3848C11.8351 230.647 13.0233 230.857 13.9494 231.276C14.8755 231.696 15.5569 232.29 15.9938 233.058C16.4481 233.827 16.6752 234.727 16.6752 235.758C16.6752 236.405 16.5529 236.972 16.3083 237.462C16.0811 237.951 15.7928 238.353 15.4433 238.667C15.1114 238.982 14.7881 239.218 14.4736 239.375C15.155 239.689 15.7491 240.214 16.2559 240.948C16.7801 241.664 17.0421 242.52 17.0421 243.516C17.0421 244.617 16.7975 245.578 16.3083 246.399C15.819 247.22 15.0939 247.858 14.1329 248.312C13.1718 248.767 12.0011 248.994 10.6207 248.994H2.60051ZM6.11263 245.927H10.1227C10.9789 245.927 11.6254 245.692 12.0623 245.22C12.4991 244.73 12.7175 244.154 12.7175 243.49C12.7175 242.808 12.4904 242.241 12.0361 241.786C11.5992 241.314 10.9615 241.079 10.1227 241.079H6.11263V245.927ZM6.11263 238.064H9.88685C10.7081 238.064 11.3197 237.864 11.7215 237.462C12.1409 237.042 12.3506 236.509 12.3506 235.863C12.3506 235.216 12.1409 234.701 11.7215 234.317C11.3197 233.915 10.7081 233.714 9.88685 233.714H6.11263V238.064Z" fill="#282828"/>
<path d="M20.51 248.994C20.3353 248.994 20.1868 248.933 20.0645 248.81C19.9422 248.688 19.881 248.531 19.881 248.339V236.02C19.881 235.828 19.9422 235.671 20.0645 235.548C20.1868 235.426 20.3353 235.365 20.51 235.365H23.131C23.3232 235.365 23.4805 235.426 23.6028 235.548C23.7251 235.671 23.7863 235.828 23.7863 236.02V248.339C23.7863 248.531 23.7251 248.688 23.6028 248.81C23.4805 248.933 23.3232 248.994 23.131 248.994H20.51ZM20.4314 233.268C20.2567 233.268 20.1082 233.207 19.9858 233.085C19.8635 232.962 19.8024 232.805 19.8024 232.613V230.516C19.8024 230.324 19.8635 230.167 19.9858 230.044C20.1082 229.905 20.2567 229.835 20.4314 229.835H23.1834C23.3757 229.835 23.5329 229.905 23.6552 230.044C23.795 230.167 23.8649 230.324 23.8649 230.516V232.613C23.8649 232.805 23.795 232.962 23.6552 233.085C23.5329 233.207 23.3757 233.268 23.1834 233.268H20.4314Z" fill="#282828"/>
<path d="M26.654 251.877C26.4793 251.877 26.3308 251.816 26.2084 251.694C26.0861 251.571 26.025 251.414 26.025 251.222V246.556C26.025 246.364 26.0861 246.207 26.2084 246.085C26.3308 245.962 26.4793 245.901 26.654 245.901H26.8899C27.3442 245.901 27.7024 245.665 27.9645 245.194C28.2441 244.722 28.445 244.023 28.5673 243.097C28.6896 242.171 28.7508 241.009 28.7508 239.611V236.02C28.7508 235.828 28.812 235.671 28.9343 235.548C29.0566 235.426 29.2051 235.365 29.3798 235.365H39.1823C39.3745 235.365 39.5318 235.426 39.6541 235.548C39.7764 235.671 39.8376 235.828 39.8376 236.02V245.875H40.9908C41.1655 245.875 41.3141 245.936 41.4364 246.058C41.5587 246.181 41.6198 246.338 41.6198 246.53V251.222C41.6198 251.414 41.5587 251.571 41.4364 251.694C41.3141 251.816 41.1655 251.877 40.9908 251.877H38.3698C38.1776 251.877 38.0204 251.816 37.898 251.694C37.7757 251.571 37.7146 251.414 37.7146 251.222V248.994H29.9302V251.222C29.9302 251.414 29.8691 251.571 29.7468 251.694C29.6245 251.816 29.4672 251.877 29.275 251.877H26.654ZM31.398 245.901L35.9323 245.875V238.458H32.4726V240.056C32.4726 241.489 32.3765 242.686 32.1843 243.647C32.0096 244.608 31.7475 245.36 31.398 245.901Z" fill="#282828"/>
<path d="M52.5127 248.994C52.338 248.994 52.1894 248.933 52.0671 248.81C51.9448 248.688 51.8837 248.531 51.8837 248.339V244.119C51.4643 244.468 50.9401 244.73 50.3111 244.905C49.682 245.08 48.9744 245.167 48.1881 245.167C46.5805 245.167 45.3399 244.774 44.4663 243.988C43.5926 243.184 43.1558 241.9 43.1558 240.135V236.02C43.1558 235.828 43.2169 235.671 43.3392 235.548C43.4616 235.426 43.6101 235.365 43.7848 235.365H46.5106C46.6854 235.365 46.8339 235.426 46.9562 235.548C47.0785 235.671 47.1397 235.828 47.1397 236.02V239.925C47.1397 240.589 47.3057 241.061 47.6377 241.341C47.9871 241.62 48.5463 241.76 49.3151 241.76C50.0664 241.76 50.678 241.655 51.1498 241.446C51.639 241.218 51.8837 240.86 51.8837 240.371V236.02C51.8837 235.828 51.9448 235.671 52.0671 235.548C52.1894 235.426 52.338 235.365 52.5127 235.365H55.3434C55.5356 235.365 55.6928 235.426 55.8151 235.548C55.9375 235.671 55.9986 235.828 55.9986 236.02V248.339C55.9986 248.531 55.9375 248.688 55.8151 248.81C55.6928 248.933 55.5356 248.994 55.3434 248.994H52.5127Z" fill="#282828"/>
<path d="M63.3851 249.256C62.459 249.256 61.629 249.081 60.8951 248.732C60.1613 248.365 59.5759 247.876 59.1391 247.264C58.7023 246.653 58.4838 245.971 58.4838 245.22C58.4838 243.979 58.9818 243.001 59.9778 242.284C60.9913 241.568 62.3192 241.079 63.9617 240.817L67.3952 240.319V239.847C67.3952 239.165 67.2379 238.641 66.9234 238.274C66.6089 237.907 66.0585 237.724 65.2722 237.724C64.6956 237.724 64.2325 237.837 63.8831 238.064C63.5336 238.292 63.2628 238.589 63.0706 238.956C62.9308 239.183 62.7298 239.296 62.4677 239.296H59.9778C59.7856 239.296 59.6371 239.244 59.5322 239.139C59.4274 239.017 59.3837 238.877 59.4012 238.72C59.4012 238.423 59.5148 238.073 59.7419 237.671C59.9691 237.269 60.3185 236.876 60.7903 236.492C61.2621 236.09 61.8649 235.758 62.5988 235.496C63.3327 235.234 64.2325 235.103 65.2984 235.103C66.3992 235.103 67.3428 235.234 68.1291 235.496C68.9154 235.758 69.5444 236.125 70.0162 236.597C70.488 237.069 70.8374 237.619 71.0646 238.248C71.2917 238.86 71.4053 239.523 71.4053 240.24V248.339C71.4053 248.531 71.3442 248.688 71.2218 248.81C71.0995 248.933 70.9423 248.994 70.7501 248.994H68.1815C68.0068 248.994 67.8582 248.933 67.7359 248.81C67.6136 248.688 67.5525 248.531 67.5525 248.339V247.369C67.3253 247.701 67.0195 248.015 66.6351 248.312C66.2507 248.592 65.7877 248.819 65.246 248.994C64.7218 249.169 64.1015 249.256 63.3851 249.256ZM64.4335 246.53C65.0101 246.53 65.5256 246.408 65.9799 246.163C66.4342 245.919 66.7924 245.543 67.0545 245.036C67.3166 244.53 67.4476 243.892 67.4476 243.123V242.677L65.0101 243.071C64.0666 243.228 63.3764 243.464 62.9395 243.778C62.5027 244.093 62.2843 244.477 62.2843 244.931C62.2843 245.263 62.3804 245.552 62.5726 245.796C62.7823 246.041 63.0531 246.224 63.3851 246.347C63.7171 246.469 64.0665 246.53 64.4335 246.53Z" fill="#282828"/>
<path d="M81.4719 233.583C80.4061 233.583 79.5412 233.417 78.8772 233.085C78.2307 232.753 77.7589 232.316 77.4618 231.774C77.1823 231.215 77.0425 230.603 77.0425 229.939C77.0425 229.8 77.0774 229.686 77.1473 229.599C77.2347 229.494 77.3657 229.442 77.5405 229.442H79.3227C79.48 229.442 79.6023 229.494 79.6897 229.599C79.777 229.686 79.8207 229.8 79.8207 229.939C79.8207 230.324 79.9343 230.665 80.1615 230.962C80.3886 231.259 80.8254 231.407 81.4719 231.407C82.1359 231.407 82.5728 231.259 82.7824 230.962C83.0096 230.665 83.1232 230.324 83.1232 229.939C83.1232 229.8 83.1669 229.686 83.2542 229.599C83.3416 229.494 83.4639 229.442 83.6212 229.442H85.4034C85.5607 229.442 85.683 229.494 85.7704 229.599C85.8577 229.686 85.9014 229.8 85.9014 229.939C85.9014 230.603 85.7529 231.215 85.4558 231.774C85.1763 232.316 84.7132 232.753 84.0667 233.085C83.4202 233.417 82.5553 233.583 81.4719 233.583Z" fill="#282828"/>
<path d="M90.6685 251.877C90.4938 251.877 90.3453 251.816 90.223 251.694C90.1007 251.571 90.0395 251.414 90.0395 251.222V246.556C90.0395 246.364 90.1007 246.207 90.223 246.085C90.3453 245.962 90.4938 245.901 90.6685 245.901H90.9044C91.3587 245.901 91.7169 245.665 91.979 245.194C92.2586 244.722 92.4595 244.023 92.5819 243.097C92.7042 242.171 92.7653 241.009 92.7653 239.611V236.02C92.7653 235.828 92.8265 235.671 92.9488 235.548C93.0711 235.426 93.2196 235.365 93.3944 235.365H103.197C103.389 235.365 103.546 235.426 103.669 235.548C103.791 235.671 103.852 235.828 103.852 236.02V245.875H105.005C105.18 245.875 105.329 245.936 105.451 246.058C105.573 246.181 105.634 246.338 105.634 246.53V251.222C105.634 251.414 105.573 251.571 105.451 251.694C105.329 251.816 105.18 251.877 105.005 251.877H102.384C102.192 251.877 102.035 251.816 101.913 251.694C101.79 251.571 101.729 251.414 101.729 251.222V248.994H93.9448V251.222C93.9448 251.414 93.8836 251.571 93.7613 251.694C93.639 251.816 93.4817 251.877 93.2895 251.877H90.6685ZM95.4125 245.901L99.9468 245.875V238.458H96.4871V240.056C96.4871 241.489 96.391 242.686 96.1988 243.647C96.0241 244.608 95.762 245.36 95.4125 245.901Z" fill="#282828"/>
<path d="M123.763 248.994C123.588 248.994 123.439 248.933 123.317 248.81C123.195 248.688 123.134 248.531 123.134 248.339V236.02C123.134 235.828 123.195 235.671 123.317 235.548C123.439 235.426 123.588 235.365 123.763 235.365H126.253C126.445 235.365 126.602 235.426 126.724 235.548C126.847 235.671 126.908 235.828 126.908 236.02V245.901H130.394V236.02C130.394 235.828 130.455 235.671 130.577 235.548C130.699 235.426 130.848 235.365 131.023 235.365H133.303C133.495 235.365 133.652 235.426 133.775 235.548C133.897 235.671 133.958 235.828 133.958 236.02V245.901H137.444V236.02C137.444 235.828 137.505 235.671 137.628 235.548C137.75 235.426 137.907 235.365 138.099 235.365H140.589C140.764 235.365 140.913 235.426 141.035 235.548C141.157 235.671 141.218 235.828 141.218 236.02V248.339C141.218 248.531 141.157 248.688 141.035 248.81C140.913 248.933 140.764 248.994 140.589 248.994H123.763Z" fill="#282828"/>
<path d="M145.237 248.994C145.063 248.994 144.914 248.933 144.792 248.81C144.669 248.688 144.608 248.531 144.608 248.339V236.02C144.608 235.828 144.669 235.671 144.792 235.548C144.914 235.426 145.063 235.365 145.237 235.365H147.858C148.05 235.365 148.208 235.426 148.33 235.548C148.452 235.671 148.514 235.828 148.514 236.02V240.528H153.834V236.02C153.834 235.828 153.895 235.671 154.018 235.548C154.14 235.426 154.297 235.365 154.489 235.365H157.11C157.285 235.365 157.434 235.426 157.556 235.548C157.678 235.671 157.739 235.828 157.739 236.02V248.339C157.739 248.531 157.678 248.688 157.556 248.81C157.434 248.933 157.285 248.994 157.11 248.994H154.489C154.297 248.994 154.14 248.933 154.018 248.81C153.895 248.688 153.834 248.531 153.834 248.339V243.621H148.514V248.339C148.514 248.531 148.452 248.688 148.33 248.81C148.208 248.933 148.05 248.994 147.858 248.994H145.237Z" fill="#282828"/>
<path d="M177.05 248.994C176.893 248.994 176.753 248.942 176.631 248.837C176.526 248.714 176.473 248.575 176.473 248.417C176.473 248.365 176.482 248.304 176.5 248.234C176.534 248.146 176.578 248.068 176.631 247.998L181.06 241.996L176.998 236.361C176.945 236.291 176.901 236.221 176.866 236.151C176.849 236.081 176.84 236.011 176.84 235.942C176.84 235.784 176.893 235.653 176.998 235.548C177.12 235.426 177.26 235.365 177.417 235.365H180.143C180.352 235.365 180.51 235.417 180.614 235.522C180.737 235.627 180.824 235.723 180.877 235.81L183.576 239.48L186.276 235.837C186.346 235.749 186.433 235.653 186.538 235.548C186.643 235.426 186.809 235.365 187.036 235.365H189.631C189.788 235.365 189.919 235.426 190.024 235.548C190.146 235.653 190.207 235.784 190.207 235.942C190.207 236.011 190.199 236.081 190.181 236.151C190.164 236.221 190.12 236.291 190.05 236.361L185.909 242.022L190.391 247.998C190.443 248.068 190.478 248.138 190.496 248.208C190.531 248.278 190.548 248.347 190.548 248.417C190.548 248.575 190.487 248.714 190.365 248.837C190.26 248.942 190.129 248.994 189.971 248.994H187.115C186.922 248.994 186.774 248.95 186.669 248.863C186.564 248.758 186.477 248.662 186.407 248.575L183.498 244.696L180.536 248.575C180.483 248.644 180.405 248.732 180.3 248.837C180.195 248.942 180.038 248.994 179.828 248.994H177.05Z" fill="#282828"/>
<path d="M197.701 248.994C197.543 248.994 197.412 248.942 197.307 248.837C197.203 248.714 197.15 248.583 197.15 248.444C197.15 248.356 197.159 248.278 197.176 248.208L203.414 231.355C203.467 231.163 203.572 230.997 203.729 230.857C203.886 230.717 204.105 230.647 204.384 230.647H207.739C208.019 230.647 208.237 230.717 208.394 230.857C208.552 230.997 208.656 231.163 208.709 231.355L214.947 248.208C214.964 248.278 214.973 248.356 214.973 248.444C214.973 248.583 214.921 248.714 214.816 248.837C214.711 248.942 214.58 248.994 214.423 248.994H211.697C211.435 248.994 211.242 248.933 211.12 248.81C210.998 248.688 210.919 248.575 210.884 248.47L209.757 245.534H202.366L201.239 248.47C201.204 248.575 201.125 248.688 201.003 248.81C200.881 248.933 200.689 248.994 200.426 248.994H197.701ZM203.336 242.153H208.761L206.062 234.605L203.336 242.153Z" fill="#282828"/>
<path d="M217.57 248.994C217.396 248.994 217.247 248.933 217.125 248.81C217.003 248.688 216.941 248.531 216.941 248.339V236.02C216.941 235.828 217.003 235.671 217.125 235.548C217.247 235.426 217.396 235.365 217.57 235.365H223.546C225.503 235.365 226.936 235.714 227.845 236.413C228.771 237.095 229.234 238.021 229.234 239.192C229.234 239.89 229.103 240.45 228.841 240.869C228.579 241.271 228.212 241.62 227.74 241.917C228.334 242.197 228.797 242.616 229.129 243.175C229.478 243.717 229.653 244.329 229.653 245.01C229.653 246.251 229.173 247.229 228.212 247.946C227.251 248.644 225.809 248.994 223.887 248.994H217.57ZM220.716 246.425H223.651C224.263 246.425 224.752 246.312 225.119 246.085C225.503 245.84 225.695 245.464 225.695 244.958C225.695 244.433 225.521 244.058 225.171 243.831C224.822 243.603 224.315 243.49 223.651 243.49H220.716V246.425ZM220.716 240.817H223.546C224.175 240.817 224.673 240.685 225.04 240.423C225.407 240.161 225.591 239.786 225.591 239.296C225.591 238.79 225.407 238.44 225.04 238.248C224.673 238.038 224.175 237.933 223.546 237.933H220.716V240.817Z" fill="#282828"/>
<path d="M236.645 248.994C236.452 248.994 236.295 248.933 236.173 248.81C236.051 248.688 235.989 248.531 235.989 248.339V238.458H231.874C231.682 238.458 231.525 238.396 231.403 238.274C231.28 238.152 231.219 237.995 231.219 237.802V236.02C231.219 235.828 231.28 235.671 231.403 235.548C231.525 235.426 231.682 235.365 231.874 235.365H243.957C244.149 235.365 244.307 235.426 244.429 235.548C244.551 235.671 244.612 235.828 244.612 236.02V237.802C244.612 237.995 244.551 238.152 244.429 238.274C244.307 238.396 244.149 238.458 243.957 238.458H239.842V248.339C239.842 248.531 239.781 248.688 239.659 248.81C239.536 248.933 239.388 248.994 239.213 248.994H236.645Z" fill="#282828"/>
<path d="M252.87 249.256C251.42 249.256 250.205 249.02 249.227 248.548C248.248 248.059 247.497 247.369 246.973 246.478C246.466 245.587 246.187 244.547 246.134 243.359C246.117 243.009 246.108 242.616 246.108 242.179C246.108 241.725 246.117 241.332 246.134 241C246.187 239.794 246.484 238.755 247.025 237.881C247.567 236.99 248.327 236.308 249.306 235.837C250.284 235.347 251.472 235.103 252.87 235.103C254.251 235.103 255.43 235.347 256.409 235.837C257.387 236.308 258.147 236.99 258.689 237.881C259.23 238.755 259.527 239.794 259.58 241C259.615 241.332 259.632 241.725 259.632 242.179C259.632 242.616 259.615 243.009 259.58 243.359C259.527 244.547 259.239 245.587 258.715 246.478C258.208 247.369 257.466 248.059 256.487 248.548C255.509 249.02 254.303 249.256 252.87 249.256ZM252.87 246.373C253.726 246.373 254.373 246.111 254.81 245.587C255.247 245.045 255.482 244.259 255.517 243.228C255.535 242.966 255.544 242.616 255.544 242.179C255.544 241.743 255.535 241.393 255.517 241.131C255.482 240.118 255.247 239.34 254.81 238.798C254.373 238.257 253.726 237.986 252.87 237.986C252.014 237.986 251.359 238.257 250.904 238.798C250.468 239.34 250.232 240.118 250.197 241.131C250.179 241.393 250.171 241.743 250.171 242.179C250.171 242.616 250.179 242.966 250.197 243.228C250.232 244.259 250.468 245.045 250.904 245.587C251.359 246.111 252.014 246.373 252.87 246.373Z" fill="#282828"/>
<path d="M263.029 253.974C262.837 253.974 262.679 253.913 262.557 253.79C262.435 253.668 262.374 253.511 262.374 253.319V236.02C262.374 235.828 262.435 235.671 262.557 235.548C262.679 235.426 262.837 235.365 263.029 235.365H265.519C265.711 235.365 265.868 235.426 265.99 235.548C266.113 235.671 266.174 235.828 266.174 236.02V237.016C266.593 236.457 267.135 236.003 267.799 235.653C268.463 235.286 269.293 235.103 270.289 235.103C271.198 235.103 271.984 235.251 272.648 235.548C273.329 235.828 273.897 236.239 274.351 236.78C274.823 237.304 275.181 237.942 275.426 238.694C275.688 239.445 275.837 240.292 275.872 241.236C275.889 241.568 275.898 241.882 275.898 242.179C275.898 242.476 275.889 242.8 275.872 243.149C275.854 244.04 275.714 244.862 275.452 245.613C275.208 246.364 274.849 247.011 274.378 247.552C273.906 248.094 273.329 248.513 272.648 248.81C271.984 249.108 271.198 249.256 270.289 249.256C269.398 249.256 268.62 249.099 267.956 248.784C267.31 248.452 266.777 248.007 266.357 247.448V253.319C266.357 253.511 266.296 253.668 266.174 253.79C266.052 253.913 265.903 253.974 265.728 253.974H263.029ZM269.109 246.111C269.773 246.111 270.298 245.971 270.682 245.692C271.066 245.394 271.337 245.01 271.495 244.538C271.669 244.067 271.774 243.551 271.809 242.992C271.844 242.45 271.844 241.909 271.809 241.367C271.774 240.808 271.669 240.292 271.495 239.821C271.337 239.349 271.066 238.973 270.682 238.694C270.298 238.396 269.773 238.248 269.109 238.248C268.463 238.248 267.939 238.396 267.537 238.694C267.135 238.991 266.847 239.366 266.672 239.821C266.497 240.275 266.392 240.764 266.357 241.288C266.34 241.603 266.331 241.926 266.331 242.258C266.331 242.59 266.34 242.922 266.357 243.254C266.375 243.743 266.48 244.206 266.672 244.643C266.882 245.062 267.179 245.412 267.563 245.692C267.965 245.971 268.48 246.111 269.109 246.111Z" fill="#282828"/>
<path d="M279.307 248.994C279.132 248.994 278.984 248.933 278.861 248.81C278.739 248.688 278.678 248.531 278.678 248.339V236.02C278.678 235.828 278.739 235.671 278.861 235.548C278.984 235.426 279.132 235.365 279.307 235.365H281.928C282.12 235.365 282.277 235.426 282.4 235.548C282.522 235.671 282.583 235.828 282.583 236.02V248.339C282.583 248.531 282.522 248.688 282.4 248.81C282.277 248.933 282.12 248.994 281.928 248.994H279.307ZM279.228 233.268C279.054 233.268 278.905 233.207 278.783 233.085C278.66 232.962 278.599 232.805 278.599 232.613V230.516C278.599 230.324 278.66 230.167 278.783 230.044C278.905 229.905 279.054 229.835 279.228 229.835H281.98C282.173 229.835 282.33 229.905 282.452 230.044C282.592 230.167 282.662 230.324 282.662 230.516V232.613C282.662 232.805 282.592 232.962 282.452 233.085C282.33 233.207 282.173 233.268 281.98 233.268H279.228Z" fill="#282828"/>
<path d="M286.499 248.994C286.325 248.994 286.176 248.933 286.054 248.81C285.931 248.688 285.87 248.531 285.87 248.339V236.02C285.87 235.828 285.931 235.671 286.054 235.548C286.176 235.426 286.325 235.365 286.499 235.365H292.475C294.432 235.365 295.865 235.714 296.774 236.413C297.7 237.095 298.163 238.021 298.163 239.192C298.163 239.89 298.032 240.45 297.77 240.869C297.507 241.271 297.141 241.62 296.669 241.917C297.263 242.197 297.726 242.616 298.058 243.175C298.407 243.717 298.582 244.329 298.582 245.01C298.582 246.251 298.102 247.229 297.14 247.946C296.179 248.644 294.738 248.994 292.816 248.994H286.499ZM289.644 246.425H292.58C293.192 246.425 293.681 246.312 294.048 246.085C294.432 245.84 294.624 245.464 294.624 244.958C294.624 244.433 294.45 244.058 294.1 243.831C293.751 243.603 293.244 243.49 292.58 243.49H289.644V246.425ZM289.644 240.817H292.475C293.104 240.817 293.602 240.685 293.969 240.423C294.336 240.161 294.519 239.786 294.519 239.296C294.519 238.79 294.336 238.44 293.969 238.248C293.602 238.038 293.104 237.933 292.475 237.933H289.644V240.817Z" fill="#282828"/>
<path d="M21.7892 217.542C21.6319 217.542 21.4922 217.481 21.3698 217.359C21.2475 217.237 21.1864 217.088 21.1864 216.913V204.569C21.1864 204.376 21.2475 204.219 21.3698 204.097C21.4922 203.974 21.6407 203.913 21.8154 203.913H24.4364C24.6286 203.913 24.7859 203.974 24.9082 204.097C25.0305 204.219 25.0917 204.376 25.0917 204.569V212.455L30.884 204.333C30.9714 204.21 31.0675 204.114 31.1723 204.044C31.2947 203.957 31.4432 203.913 31.6179 203.913H33.9768C34.1515 203.913 34.3 203.974 34.4224 204.097C34.5447 204.219 34.6058 204.359 34.6058 204.516V216.887C34.6058 217.079 34.5447 217.237 34.4224 217.359C34.3 217.481 34.1428 217.542 33.9506 217.542H31.3296C31.1549 217.542 31.0063 217.481 30.884 217.359C30.7617 217.237 30.7006 217.079 30.7006 216.887V209.004L24.882 217.123C24.8121 217.245 24.716 217.35 24.5937 217.437C24.4713 217.507 24.3316 217.542 24.1743 217.542H21.7892Z" fill="#282828"/>
<path fill-rule="evenodd" clip-rule="evenodd" d="M174.857 217.804C173.337 217.804 172.088 217.551 171.109 217.044C170.148 216.538 169.423 215.778 168.934 214.764C168.462 213.733 168.191 212.458 168.121 210.937C168.104 210.431 168.095 209.907 168.095 209.365C168.095 208.823 168.104 208.299 168.121 207.792C168.156 206.29 168.305 205.032 168.567 204.018C168.847 202.987 169.257 202.14 169.799 201.476C170.358 200.794 171.066 200.235 171.922 199.798C172.795 199.344 173.835 198.951 175.041 198.619C176.246 198.287 177.644 197.937 179.234 197.571C179.409 197.536 179.575 197.562 179.732 197.649C179.89 197.737 179.977 197.876 179.994 198.068L180.388 200.113C180.423 200.305 180.388 200.471 180.283 200.611C180.195 200.751 180.073 200.838 179.916 200.873C178.57 201.153 177.426 201.406 176.482 201.633C175.539 201.86 174.752 202.122 174.123 202.419C173.512 202.699 173.04 203.075 172.708 203.546C172.376 204.001 172.14 204.603 172 205.355C171.949 205.665 171.911 206.011 171.888 206.392C171.947 206.325 172.011 206.258 172.079 206.194C172.498 205.792 173.014 205.468 173.625 205.224C174.237 204.962 174.884 204.831 175.565 204.831C176.841 204.831 177.915 205.058 178.789 205.512C179.662 205.966 180.326 206.613 180.781 207.452C181.253 208.273 181.523 209.26 181.593 210.413C181.628 211.06 181.628 211.663 181.593 212.222C181.523 213.34 181.226 214.327 180.702 215.183C180.195 216.022 179.453 216.669 178.474 217.123C177.496 217.577 176.29 217.804 174.857 217.804ZM176.797 214.397C176.36 214.904 175.713 215.157 174.857 215.157C174.001 215.157 173.355 214.904 172.918 214.397C172.481 213.873 172.236 213.104 172.184 212.091C172.166 211.898 172.158 211.654 172.158 211.357C172.158 211.042 172.166 210.763 172.184 210.518C172.236 209.54 172.507 208.788 172.996 208.264C173.486 207.74 174.167 207.478 175.041 207.478C175.792 207.478 176.377 207.74 176.797 208.264C177.234 208.788 177.47 209.54 177.505 210.518C177.522 210.763 177.531 211.042 177.531 211.357C177.531 211.654 177.522 211.898 177.505 212.091C177.47 213.104 177.234 213.873 176.797 214.397Z" fill="#282828"/>
<path fill-rule="evenodd" clip-rule="evenodd" d="M296.645 217.542C296.453 217.542 296.296 217.481 296.173 217.359C296.051 217.237 295.99 217.079 295.99 216.887V213.034H293.906L291.508 217.149C291.438 217.254 291.342 217.35 291.22 217.437C291.115 217.507 290.993 217.542 290.853 217.542H288.206C288.048 217.542 287.917 217.49 287.812 217.385C287.708 217.28 287.655 217.158 287.655 217.018C287.655 216.966 287.664 216.905 287.681 216.835C287.716 216.765 287.76 216.695 287.812 216.625L290.474 212.327C290.104 212.155 289.776 211.946 289.49 211.698C288.564 210.876 288.101 209.784 288.101 208.421C288.101 206.936 288.573 205.818 289.516 205.066C290.477 204.298 291.831 203.913 293.579 203.913H299.345C299.537 203.913 299.694 203.974 299.817 204.097C299.939 204.219 300 204.376 300 204.569V216.887C300 217.079 299.939 217.237 299.817 217.359C299.694 217.481 299.537 217.542 299.345 217.542H296.645ZM296.069 210.282H293.605C292.923 210.282 292.417 210.107 292.085 209.758C291.77 209.409 291.613 208.963 291.613 208.421C291.613 207.775 291.788 207.321 292.137 207.058C292.487 206.796 293.019 206.665 293.736 206.665H296.069V210.282Z" fill="#282828"/>
<path d="M75.1816 248.994C75.0243 248.994 74.8845 248.933 74.7622 248.81C74.6399 248.688 74.5788 248.54 74.5788 248.365V236.02C74.5788 235.828 74.6399 235.671 74.7622 235.548C74.8845 235.426 75.0331 235.365 75.2078 235.365H77.8288C78.021 235.365 78.1782 235.426 78.3006 235.548C78.4229 235.671 78.484 235.828 78.484 236.02V243.907L84.2764 235.784C84.3638 235.662 84.4599 235.566 84.5647 235.496C84.687 235.409 84.8355 235.365 85.0103 235.365H87.3692C87.5439 235.365 87.6924 235.426 87.8147 235.548C87.937 235.671 87.9982 235.81 87.9982 235.968V248.339C87.9982 248.531 87.937 248.688 87.8147 248.81C87.6924 248.933 87.5352 248.994 87.3429 248.994H84.722C84.5472 248.994 84.3987 248.933 84.2764 248.81C84.1541 248.688 84.0929 248.531 84.0929 248.339V240.455L78.2743 248.575C78.2045 248.697 78.1083 248.802 77.986 248.889C77.8637 248.959 77.7239 248.994 77.5667 248.994H75.1816Z" fill="#282828"/>
<path d="M109.031 254C108.839 254 108.682 253.93 108.559 253.79C108.437 253.668 108.376 253.519 108.376 253.345V251.536C108.376 251.362 108.437 251.213 108.559 251.091C108.682 250.968 108.839 250.907 109.031 250.907H109.896C110.228 250.907 110.499 250.837 110.709 250.698C110.936 250.575 111.137 250.366 111.311 250.069C111.486 249.771 111.687 249.361 111.914 248.837L112.114 248.352L106.934 236.282C106.865 236.142 106.83 236.029 106.83 235.942C106.847 235.784 106.908 235.653 107.013 235.548C107.135 235.426 107.275 235.365 107.432 235.365H109.949C110.158 235.365 110.315 235.426 110.42 235.548C110.525 235.653 110.604 235.767 110.656 235.889L113.91 244.003L117.261 235.889C117.314 235.749 117.392 235.627 117.497 235.522C117.619 235.417 117.785 235.365 117.995 235.365H120.406C120.546 235.365 120.668 235.426 120.773 235.548C120.896 235.653 120.957 235.776 120.957 235.915C120.957 235.95 120.948 236.003 120.93 236.073C120.93 236.125 120.913 236.195 120.878 236.282L115.898 248.234C115.566 249.038 115.217 249.789 114.85 250.488C114.5 251.187 114.116 251.798 113.697 252.323C113.277 252.847 112.779 253.257 112.203 253.554C111.643 253.851 110.997 254 110.263 254H109.031Z" fill="#282828"/>
<path d="M161.72 248.994C161.563 248.994 161.423 248.933 161.301 248.81C161.179 248.688 161.117 248.54 161.117 248.365V236.02C161.117 235.828 161.179 235.671 161.301 235.548C161.423 235.426 161.572 235.365 161.746 235.365H164.367C164.56 235.365 164.717 235.426 164.839 235.548C164.962 235.671 165.023 235.828 165.023 236.02V243.907L170.815 235.784C170.902 235.662 170.999 235.566 171.103 235.496C171.226 235.409 171.374 235.365 171.549 235.365H173.908C174.083 235.365 174.231 235.426 174.353 235.548C174.476 235.671 174.537 235.81 174.537 235.968V248.339C174.537 248.531 174.476 248.688 174.353 248.81C174.231 248.933 174.074 248.994 173.882 248.994H171.261C171.086 248.994 170.937 248.933 170.815 248.81C170.693 248.688 170.632 248.531 170.632 248.339V240.455L164.813 248.575C164.743 248.697 164.647 248.802 164.525 248.889C164.402 248.959 164.263 248.994 164.105 248.994H161.72Z" fill="#282828"/>
<path d="M180.257 10.0753C171.104 10.4726 155.078 19.0769 155.078 44.2022C155.078 59.8062 165.808 76.209 174.724 73.8381C175.401 73.658 175.916 73.271 176.319 72.7186C172.026 70.3403 169.314 66.692 169.314 61.78C169.314 55.431 173.543 54.218 179.587 52.4847C181.759 51.8618 184.165 51.1717 186.693 50.1519C182.481 47.8542 180.996 44.2295 185.855 41.3808C184.188 36.8914 181.123 34.9397 178.612 33.341C176.39 31.926 174.602 30.7875 174.602 28.4107C174.602 22.98 180.353 15.4852 187.104 12.9315C186.019 11.0195 183.932 9.91579 180.257 10.0753Z" fill="#CC2929"/>
<path d="M191.802 41.5607C196.66 44.4094 196.792 47.6816 192.58 49.9794C192.968 50.1217 193.376 50.2674 193.8 50.4188C198.769 52.1934 205.941 54.755 207.852 61.8577C209.131 66.6115 205.238 70.8697 199.997 73.4376C200.283 74.9609 200.864 76.0115 202.04 76.3242C212.937 79.2219 229.432 63.7939 229.432 44.4187C229.432 25.0434 223.126 9.39387 211.094 9.89228C207.005 10.0617 203.903 11.7469 201.503 14.3062C207.257 16.7379 212.438 21.0562 210.859 26.9273C209.887 30.5385 206.666 31.649 203.037 32.9001C198.92 34.3197 194.277 35.9202 191.802 41.5607Z" fill="#CC2929"/>
<path d="M210.859 26.9273C212.438 21.0562 207.257 16.7379 201.503 14.3062C196.434 19.7122 194.498 29.0183 193.009 36.177C192.591 38.185 192.209 40.0241 191.802 41.5607C194.277 35.9202 198.92 34.3197 203.037 32.9001C206.666 31.649 209.887 30.5385 210.859 26.9273Z" fill="#F33131"/>
<path d="M185.855 41.3808C187.755 40.5589 189.926 40.8141 191.802 41.5607C192.209 40.0241 192.591 38.185 193.009 36.177C194.498 29.0183 196.434 19.7122 201.503 14.3062C197.985 12.8194 194.252 12.0379 191.719 12.0379C190.166 12.0379 188.61 12.3617 187.104 12.9315C188.957 16.1994 187.878 21.8286 186.783 27.5484C185.812 32.6139 184.828 37.7504 185.855 41.3808Z" fill="#CC2929"/>
<path d="M187.104 12.9315C180.353 15.4852 174.602 22.98 174.602 28.4107C174.602 30.7875 176.39 31.926 178.612 33.341C181.123 34.9397 184.188 36.8914 185.855 41.3808C184.828 37.7504 185.812 32.6139 186.783 27.5484C187.878 21.8286 188.957 16.1994 187.104 12.9315Z" fill="#F33131"/>
<path d="M169.314 61.78C169.314 66.692 172.026 70.3403 176.319 72.7186C177.309 71.3598 177.617 69.0004 177.974 66.2605C178.693 60.7481 179.613 53.6956 186.693 50.1519C184.165 51.1717 181.759 51.8618 179.587 52.4847C173.543 54.218 169.314 55.431 169.314 61.78Z" fill="#F33131"/>
<path d="M186.693 50.1519C179.613 53.6956 178.693 60.7481 177.974 66.2605C177.617 69.0004 177.309 71.3598 176.319 72.7186C178.302 73.8175 180.623 74.6452 183.169 75.2011C184.99 75.5985 186.857 75.8695 188.72 75.9597C192.309 76.1337 196.46 75.1706 199.997 73.4376C199.717 71.955 199.716 70.0244 199.715 67.8904C199.712 61.6018 199.707 53.5464 192.58 49.9794C190.749 50.836 188.55 51.0232 186.693 50.1519Z" fill="#CC2929"/>
<path d="M199.997 73.4376C205.238 70.8697 209.131 66.6115 207.852 61.8577C205.941 54.755 198.769 52.1934 193.8 50.4188C193.376 50.2674 192.968 50.1217 192.58 49.9794C199.707 53.5464 199.712 61.6018 199.715 67.8904C199.716 70.0244 199.717 71.955 199.997 73.4376Z" fill="#F33131"/>
<path fill-rule="evenodd" clip-rule="evenodd" d="M125.046 2.47089C122.817 2.47089 121.105 3.53514 119.911 5.66364L104.269 34.0436L88.6273 5.66364C87.4333 3.53514 85.7218 2.47089 83.4929 2.47089H61.6418C60.7662 2.47089 60.0099 2.78623 59.3731 3.41689C58.7363 4.04756 58.4179 4.79647 58.4179 5.66364V164.828C58.4179 165.695 58.7524 166.444 59.4216 167.075C60.0908 167.705 60.8854 168.021 61.8055 168.021H113.499C125.042 168.021 133.825 165.892 139.848 161.635C143.37 159.099 146.031 155.545 147.496 151.499L142.809 164.71L142.686 165.419C142.686 166.129 142.932 166.759 143.424 167.311C143.998 167.784 144.654 168.021 145.392 168.021H168.639C171.263 168.021 173.108 166.681 174.174 164L177.249 155.723H207.261L210.336 164C211.402 166.681 213.247 168.021 215.871 168.021H222.853C228.477 143.113 215.12 122.823 200.728 103.885C196.021 97.6904 191.341 91.532 187.757 85.2458H175.158C173.6 85.2458 172.37 85.6399 171.468 86.4283C170.566 87.2166 169.951 88.1232 169.623 89.148L147.589 151.237C148.501 148.496 148.882 145.419 148.882 142.006C148.882 137.906 147.711 134.28 145.369 131.127C143.026 127.895 140.224 125.805 136.962 124.859C139.304 124.15 141.563 122.455 143.737 119.775C145.912 117.094 147 113.862 147 110.078C147 102.766 144.647 95.7627 138.468 91.3948C132.863 87.2954 124.122 85.2458 112.244 85.2458H86.478V45.3956L95.1946 62.4236C96.0077 64.3024 98.2648 65.3798 100.21 65.3798H108.329C110.274 65.3798 112.531 64.3024 113.344 62.4236L122.061 45.3956V82.053C122.061 82.9202 122.379 83.6691 123.016 84.2998C123.653 84.9305 124.409 85.2458 125.285 85.2458H146.897C147.773 85.2458 148.529 84.9305 149.166 84.2998C149.802 83.6691 150.121 82.9202 150.121 82.053V49.6083C150.121 61.8427 153.878 70.8408 161.392 76.6028C168.172 81.7509 176.942 84.5992 187.701 85.1477C185.843 81.8756 184.285 78.5723 183.169 75.2011C180.623 74.6452 178.302 73.8175 176.319 72.7186C175.916 73.271 175.401 73.658 174.724 73.8381C165.808 76.209 155.078 59.8062 155.078 44.2022C155.078 19.0769 171.104 10.4726 180.257 10.0753C183.932 9.91579 186.019 11.0195 187.104 12.9315C188.61 12.3617 190.166 12.0379 191.719 12.0379C194.252 12.0379 197.985 12.8194 201.503 14.3062C203.903 11.7469 207.005 10.0617 211.094 9.89228C223.126 9.39387 229.432 25.0434 229.432 44.4187C229.432 63.7939 212.937 79.2219 202.04 76.3242C200.864 76.0115 200.283 74.9609 199.997 73.4376C196.46 75.1706 192.309 76.1337 188.72 75.9597C190.017 79.1907 191.673 82.2641 193.503 85.2242C205.207 84.9504 214.628 82.0766 221.766 76.6028C229.355 70.8408 233.149 61.9216 233.149 49.8451V35.4007C233.149 27.4286 231.327 20.7984 227.681 15.51C224.036 10.2216 219.088 6.3145 212.839 3.7887C206.664 1.2629 199.596 0 191.635 0C183.675 0 176.57 1.2629 170.32 3.7887C164.071 6.3145 159.123 10.2611 155.478 15.6284C151.906 20.9168 150.121 27.5865 150.121 35.6375V5.66364C150.121 4.79647 149.802 4.04756 149.166 3.41689C148.529 2.78623 147.773 2.47089 146.897 2.47089H125.046ZM183.522 132.664L192.255 108.068L200.988 132.664H183.522ZM111.617 107.122C112.537 108.147 112.997 109.369 112.997 110.788C112.997 112.207 112.537 113.507 111.617 114.69C110.781 115.794 109.526 116.345 107.853 116.345H91.04V105.585H107.853C109.526 105.585 110.781 106.097 111.617 107.122ZM113.499 145.908C112.579 147.09 111.157 147.682 109.233 147.682H91.04V136.093H109.233C110.99 136.093 112.37 136.645 113.374 137.749C114.456 138.847 115.005 140.236 115.005 141.769C115.005 143.267 114.503 144.647 113.499 145.908Z" fill="#282828"/>
<path d="M213.042 86.4283C212.14 85.6399 210.91 85.2458 209.352 85.2458H193.516C196.701 90.3947 200.654 95.6002 204.836 101.107C219.842 120.866 233.334 142.08 227.925 168.021H239.118C239.856 168.021 240.471 167.784 240.963 167.311C241.537 166.759 241.824 166.129 241.824 165.419L241.701 164.71L214.887 89.148C214.559 88.1232 213.944 87.2166 213.042 86.4283Z" fill="#282828"/>
<path d="M192.58 49.9794C196.792 47.6816 196.66 44.4094 191.802 41.5607C189.926 40.8141 187.755 40.5589 185.855 41.3808C180.996 44.2295 182.481 47.8542 186.693 50.1519C188.55 51.0232 190.749 50.836 192.58 49.9794Z" fill="#282828"/>
</svg>
