<svg width="691" height="65" viewBox="0 0 691 65" fill="none" xmlns="http://www.w3.org/2000/svg">
<path d="M3.075 64C2.45167 64 1.94167 63.8017 1.545 63.405C1.14833 63.0083 0.95 62.4983 0.95 61.875V6.625C0.95 6.00166 1.14833 5.49166 1.545 5.095C1.94167 4.69833 2.45167 4.5 3.075 4.5H50.25C50.8733 4.5 51.3833 4.69833 51.78 5.095C52.1767 5.49166 52.375 6.00166 52.375 6.625V61.875C52.375 62.4983 52.1767 63.0083 51.78 63.405C51.3833 63.8017 50.8733 64 50.25 64H39.285C38.6617 64 38.1517 63.8017 37.755 63.405C37.3583 63.0083 37.16 62.4983 37.16 61.875V18.1H16.165V61.875C16.165 62.4983 15.9667 63.0083 15.57 63.405C15.1733 63.8017 14.6633 64 14.04 64H3.075ZM84.26 64.85C79.5 64.85 75.4766 64.085 72.19 62.555C68.96 61.025 66.4666 58.8433 64.71 56.01C63.01 53.12 62.0466 49.6917 61.82 45.725C61.7633 44.5917 61.735 43.3167 61.735 41.9C61.735 40.4267 61.7633 39.1517 61.82 38.075C62.0466 34.0517 63.0666 30.6233 64.88 27.79C66.6933 24.9567 69.215 22.775 72.445 21.245C75.7316 19.715 79.67 18.95 84.26 18.95C88.9066 18.95 92.845 19.715 96.075 21.245C99.3616 22.775 101.912 24.9567 103.725 27.79C105.538 30.6233 106.558 34.0517 106.785 38.075C106.842 39.1517 106.87 40.4267 106.87 41.9C106.87 43.3167 106.842 44.5917 106.785 45.725C106.558 49.6917 105.567 53.12 103.81 56.01C102.11 58.8433 99.6166 61.025 96.33 62.555C93.1 64.085 89.0766 64.85 84.26 64.85ZM84.26 54.48C86.81 54.48 88.6516 53.715 89.785 52.185C90.975 50.655 91.655 48.36 91.825 45.3C91.8816 44.45 91.91 43.3167 91.91 41.9C91.91 40.4833 91.8816 39.35 91.825 38.5C91.655 35.4967 90.975 33.23 89.785 31.7C88.6516 30.1133 86.81 29.32 84.26 29.32C81.7666 29.32 79.925 30.1133 78.735 31.7C77.545 33.23 76.8933 35.4967 76.78 38.5C76.7233 39.35 76.695 40.4833 76.695 41.9C76.695 43.3167 76.7233 44.45 76.78 45.3C76.8933 48.36 77.545 50.655 78.735 52.185C79.925 53.715 81.7666 54.48 84.26 54.48ZM133.76 64.85C129.793 64.85 126.507 64.425 123.9 63.575C121.35 62.725 119.31 61.62 117.78 60.26C116.25 58.9 115.145 57.4833 114.465 56.01C113.842 54.48 113.445 53.12 113.275 51.93C113.218 51.4767 113.36 51.1083 113.7 50.825C114.04 50.5417 114.408 50.4 114.805 50.4H124.665C125.288 50.4 125.742 50.5133 126.025 50.74C126.365 50.9667 126.648 51.2783 126.875 51.675C127.385 52.8083 128.207 53.63 129.34 54.14C130.53 54.65 132.06 54.905 133.93 54.905C135.233 54.905 136.367 54.735 137.33 54.395C138.35 54.055 139.115 53.545 139.625 52.865C140.135 52.185 140.39 51.335 140.39 50.315C140.39 48.8983 139.965 47.8217 139.115 47.085C138.265 46.2917 136.792 45.895 134.695 45.895H129.935C129.425 45.895 129 45.725 128.66 45.385C128.32 44.9883 128.15 44.535 128.15 44.025V39.18C128.15 38.67 128.32 38.245 128.66 37.905C129 37.5083 129.425 37.31 129.935 37.31H134.525C136.282 37.31 137.557 36.9983 138.35 36.375C139.143 35.7517 139.54 34.7883 139.54 33.485C139.54 32.6917 139.342 31.955 138.945 31.275C138.548 30.595 137.925 30.0567 137.075 29.66C136.225 29.2067 135.063 28.98 133.59 28.98C131.493 28.98 129.992 29.2917 129.085 29.915C128.235 30.4817 127.527 31.3883 126.96 32.635C126.733 33.0317 126.45 33.3433 126.11 33.57C125.827 33.7967 125.373 33.91 124.75 33.91H115.23C114.777 33.91 114.408 33.7683 114.125 33.485C113.842 33.2017 113.7 32.8333 113.7 32.38C113.87 30.9067 114.295 29.405 114.975 27.875C115.712 26.2883 116.845 24.815 118.375 23.455C119.905 22.095 121.917 21.0183 124.41 20.225C126.903 19.375 130.02 18.95 133.76 18.95C138.577 18.95 142.402 19.545 145.235 20.735C148.125 21.8683 150.193 23.3983 151.44 25.325C152.687 27.195 153.31 29.2633 153.31 31.53C153.31 33.4567 152.913 35.2133 152.12 36.8C151.327 38.3867 149.91 39.69 147.87 40.71C150.42 41.6733 152.177 43.1467 153.14 45.13C154.103 47.1133 154.585 49.2383 154.585 51.505C154.585 54.225 153.735 56.5767 152.035 58.56C150.392 60.5433 148.012 62.1017 144.895 63.235C141.778 64.3117 138.067 64.85 133.76 64.85ZM164.752 64C164.129 64 163.619 63.8017 163.222 63.405C162.826 63.0083 162.627 62.4983 162.627 61.875V21.925C162.627 21.3017 162.826 20.7917 163.222 20.395C163.619 19.9983 164.129 19.8 164.752 19.8H174.782C175.349 19.8 175.831 19.9983 176.227 20.395C176.681 20.7917 176.907 21.3017 176.907 21.925V36.035H192.207V21.925C192.207 21.3017 192.406 20.7917 192.802 20.395C193.199 19.9983 193.709 19.8 194.332 19.8H204.362C204.929 19.8 205.411 19.9983 205.807 20.395C206.261 20.7917 206.487 21.3017 206.487 21.925V61.875C206.487 62.4983 206.261 63.0083 205.807 63.405C205.411 63.8017 204.929 64 204.362 64H194.332C193.709 64 193.199 63.8017 192.802 63.405C192.406 63.0083 192.207 62.4983 192.207 61.875V47.17H176.907V61.875C176.907 62.4983 176.681 63.0083 176.227 63.405C175.831 63.8017 175.349 64 174.782 64H164.752ZM230.091 64.85C227.031 64.85 224.283 64.2833 221.846 63.15C219.466 61.96 217.568 60.3733 216.151 58.39C214.735 56.4067 214.026 54.1683 214.026 51.675C214.026 47.6517 215.67 44.4783 218.956 42.155C222.243 39.775 226.606 38.16 232.046 37.31L242.671 35.695V34.505C242.671 32.465 242.246 30.9067 241.396 29.83C240.546 28.7533 238.988 28.215 236.721 28.215C235.135 28.215 233.831 28.5267 232.811 29.15C231.848 29.7733 231.083 30.6233 230.516 31.7C230.006 32.4367 229.298 32.805 228.391 32.805H218.871C218.248 32.805 217.766 32.635 217.426 32.295C217.086 31.8983 216.945 31.445 217.001 30.935C217.001 29.915 217.37 28.7533 218.106 27.45C218.9 26.09 220.09 24.7583 221.676 23.455C223.263 22.1517 225.303 21.075 227.796 20.225C230.29 19.375 233.293 18.95 236.806 18.95C240.49 18.95 243.635 19.375 246.241 20.225C248.848 21.075 250.945 22.265 252.531 23.795C254.175 25.325 255.393 27.1383 256.186 29.235C256.98 31.275 257.376 33.5417 257.376 36.035V61.875C257.376 62.4983 257.15 63.0083 256.696 63.405C256.3 63.8017 255.818 64 255.251 64H245.391C244.768 64 244.258 63.8017 243.861 63.405C243.465 63.0083 243.266 62.4983 243.266 61.875V58.9C242.53 59.9767 241.538 60.9683 240.291 61.875C239.045 62.7817 237.571 63.49 235.871 64C234.228 64.5667 232.301 64.85 230.091 64.85ZM234.086 55.16C235.73 55.16 237.203 54.82 238.506 54.14C239.866 53.4033 240.915 52.2983 241.651 50.825C242.445 49.295 242.841 47.3967 242.841 45.13V43.94L235.616 45.215C232.953 45.6683 230.998 46.3767 229.751 47.34C228.561 48.2467 227.966 49.3233 227.966 50.57C227.966 51.5333 228.25 52.355 228.816 53.035C229.383 53.715 230.12 54.2533 231.026 54.65C231.933 54.99 232.953 55.16 234.086 55.16ZM269.008 64C268.441 64 267.96 63.8017 267.563 63.405C267.166 63.0083 266.968 62.5267 266.968 61.96V21.925C266.968 21.3017 267.166 20.7917 267.563 20.395C267.96 19.9983 268.47 19.8 269.093 19.8H279.123C279.69 19.8 280.171 19.9983 280.568 20.395C281.021 20.7917 281.248 21.3017 281.248 21.925V52.95L277.423 51.08L298.418 21.16C298.701 20.7633 299.041 20.4517 299.438 20.225C299.835 19.9417 300.288 19.8 300.798 19.8H309.893C310.46 19.8 310.941 19.9983 311.338 20.395C311.735 20.7917 311.933 21.2733 311.933 21.84V61.875C311.933 62.4983 311.735 63.0083 311.338 63.405C310.941 63.8017 310.431 64 309.808 64H299.778C299.155 64 298.645 63.8017 298.248 63.405C297.851 63.0083 297.653 62.4983 297.653 61.875V31.785L301.563 32.55L280.398 62.64C280.171 63.0367 279.86 63.3767 279.463 63.66C279.066 63.8867 278.585 64 278.018 64H269.008ZM290.088 14.02C286.575 14.02 283.713 13.4817 281.503 12.405C279.293 11.3283 277.678 9.855 276.658 7.985C275.695 6.115 275.213 4.075 275.213 1.865C275.213 1.41167 275.326 1.04333 275.553 0.759999C275.836 0.419996 276.261 0.249995 276.828 0.249995H283.628C284.138 0.249995 284.535 0.419996 284.818 0.759999C285.101 1.04333 285.243 1.41167 285.243 1.865C285.243 3.055 285.555 4.10333 286.178 5.01C286.858 5.91666 288.161 6.37 290.088 6.37C292.071 6.37 293.375 5.91666 293.998 5.01C294.678 4.10333 295.018 3.055 295.018 1.865C295.018 1.41167 295.16 1.04333 295.443 0.759999C295.726 0.419996 296.123 0.249995 296.633 0.249995H303.433C303.943 0.249995 304.34 0.419996 304.623 0.759999C304.906 1.04333 305.048 1.41167 305.048 1.865C305.048 4.075 304.538 6.115 303.518 7.985C302.555 9.855 300.968 11.3283 298.758 12.405C296.548 13.4817 293.658 14.02 290.088 14.02ZM342.082 64.85C337.322 64.85 333.299 64.085 330.012 62.555C326.782 61.025 324.289 58.8433 322.532 56.01C320.832 53.12 319.869 49.6917 319.642 45.725C319.586 44.5917 319.557 43.3167 319.557 41.9C319.557 40.4267 319.586 39.1517 319.642 38.075C319.869 34.0517 320.889 30.6233 322.702 27.79C324.516 24.9567 327.037 22.775 330.267 21.245C333.554 19.715 337.492 18.95 342.082 18.95C346.729 18.95 350.667 19.715 353.897 21.245C357.184 22.775 359.734 24.9567 361.547 27.79C363.361 30.6233 364.381 34.0517 364.607 38.075C364.664 39.1517 364.692 40.4267 364.692 41.9C364.692 43.3167 364.664 44.5917 364.607 45.725C364.381 49.6917 363.389 53.12 361.632 56.01C359.932 58.8433 357.439 61.025 354.152 62.555C350.922 64.085 346.899 64.85 342.082 64.85ZM342.082 54.48C344.632 54.48 346.474 53.715 347.607 52.185C348.797 50.655 349.477 48.36 349.647 45.3C349.704 44.45 349.732 43.3167 349.732 41.9C349.732 40.4833 349.704 39.35 349.647 38.5C349.477 35.4967 348.797 33.23 347.607 31.7C346.474 30.1133 344.632 29.32 342.082 29.32C339.589 29.32 337.747 30.1133 336.557 31.7C335.367 33.23 334.716 35.4967 334.602 38.5C334.546 39.35 334.517 40.4833 334.517 41.9C334.517 43.3167 334.546 44.45 334.602 45.3C334.716 48.36 335.367 50.655 336.557 52.185C337.747 53.715 339.589 54.48 342.082 54.48ZM374.752 64C374.299 64 373.902 63.83 373.562 63.49C373.222 63.15 373.052 62.725 373.052 62.215V21.5C373.052 21.0467 373.222 20.65 373.562 20.31C373.902 19.97 374.299 19.8 374.752 19.8H384.527C385.547 19.8 386.369 20.31 386.992 21.33L398.552 41.985L410.197 21.33C410.82 20.31 411.642 19.8 412.662 19.8H422.437C422.947 19.8 423.372 19.97 423.712 20.31C424.052 20.65 424.222 21.0467 424.222 21.5V62.215C424.222 62.725 424.052 63.15 423.712 63.49C423.372 63.83 422.947 64 422.437 64H411.897C411.387 64 410.962 63.83 410.622 63.49C410.282 63.15 410.112 62.725 410.112 62.215V34.505L414.277 35.44L402.802 55.5C402.519 56.01 402.179 56.4633 401.782 56.86C401.442 57.2 400.932 57.37 400.252 57.37H396.852C396.285 57.37 395.804 57.2 395.407 56.86C395.01 56.52 394.642 56.0667 394.302 55.5L383.167 35.95L387.077 35.1V62.215C387.077 62.725 386.907 63.15 386.567 63.49C386.227 63.83 385.802 64 385.292 64H374.752ZM447.906 64C447.339 64 446.829 63.8017 446.376 63.405C445.979 63.0083 445.781 62.4983 445.781 61.875V30.935H432.861C432.294 30.935 431.784 30.7367 431.331 30.34C430.934 29.9433 430.736 29.4333 430.736 28.81V21.925C430.736 21.3017 430.934 20.7917 431.331 20.395C431.784 19.9983 432.294 19.8 432.861 19.8H472.811C473.378 19.8 473.859 19.9983 474.256 20.395C474.709 20.7917 474.936 21.3017 474.936 21.925V28.81C474.936 29.4333 474.709 29.9433 474.256 30.34C473.859 30.7367 473.378 30.935 472.811 30.935H459.891V61.875C459.891 62.4983 459.693 63.0083 459.296 63.405C458.899 63.8017 458.389 64 457.766 64H447.906ZM501.528 64.85C494.842 64.85 489.515 63.0367 485.548 59.41C481.582 55.7833 479.513 50.4 479.343 43.26C479.343 42.8633 479.343 42.3533 479.343 41.73C479.343 41.1067 479.343 40.625 479.343 40.285C479.513 35.8083 480.505 31.9833 482.318 28.81C484.188 25.58 486.738 23.1433 489.968 21.5C493.255 19.8 497.08 18.95 501.443 18.95C506.43 18.95 510.538 19.9417 513.768 21.925C517.055 23.9083 519.52 26.6 521.163 30C522.807 33.4 523.628 37.2817 523.628 41.645V43.685C523.628 44.3083 523.402 44.8183 522.948 45.215C522.552 45.6117 522.07 45.81 521.503 45.81H494.303C494.303 45.8667 494.303 45.9517 494.303 46.065C494.303 46.1783 494.303 46.2917 494.303 46.405C494.36 48.0483 494.643 49.55 495.153 50.91C495.663 52.27 496.457 53.3467 497.533 54.14C498.61 54.9333 499.913 55.33 501.443 55.33C502.577 55.33 503.512 55.16 504.248 54.82C505.042 54.4233 505.693 53.9983 506.203 53.545C506.713 53.035 507.11 52.61 507.393 52.27C507.903 51.7033 508.3 51.3633 508.583 51.25C508.923 51.08 509.433 50.995 510.113 50.995H520.653C521.22 50.995 521.673 51.165 522.013 51.505C522.41 51.7883 522.58 52.2133 522.523 52.78C522.467 53.7433 521.985 54.905 521.078 56.265C520.172 57.625 518.84 58.985 517.083 60.345C515.383 61.6483 513.23 62.725 510.623 63.575C508.017 64.425 504.985 64.85 501.528 64.85ZM494.303 37.395H508.668V37.225C508.668 35.4117 508.385 33.825 507.818 32.465C507.308 31.105 506.487 30.0567 505.353 29.32C504.277 28.5833 502.973 28.215 501.443 28.215C499.913 28.215 498.61 28.5833 497.533 29.32C496.513 30.0567 495.72 31.105 495.153 32.465C494.587 33.825 494.303 35.4117 494.303 37.225V37.395ZM551.912 64.85C547.719 64.85 544.007 64.085 540.777 62.555C537.547 61.025 534.969 58.815 533.042 55.925C531.172 52.9783 530.152 49.465 529.982 45.385C529.925 44.4783 529.897 43.345 529.897 41.985C529.897 40.5683 529.925 39.4067 529.982 38.5C530.152 34.3633 531.172 30.85 533.042 27.96C534.912 25.0133 537.462 22.775 540.692 21.245C543.979 19.715 547.719 18.95 551.912 18.95C555.822 18.95 559.165 19.5167 561.942 20.65C564.719 21.7267 566.985 23.0867 568.742 24.73C570.499 26.3733 571.802 28.0733 572.652 29.83C573.559 31.53 574.04 33.0317 574.097 34.335C574.154 34.9017 573.955 35.4117 573.502 35.865C573.049 36.2617 572.539 36.46 571.972 36.46H561.177C560.554 36.46 560.072 36.3183 559.732 36.035C559.392 35.7517 559.08 35.3267 558.797 34.76C558.117 33.0033 557.239 31.7567 556.162 31.02C555.142 30.2833 553.81 29.915 552.167 29.915C549.9 29.915 548.144 30.6517 546.897 32.125C545.707 33.5983 545.055 35.865 544.942 38.925C544.885 41.1917 544.885 43.2033 544.942 44.96C545.055 48.0767 545.707 50.3433 546.897 51.76C548.144 53.1767 549.9 53.885 552.167 53.885C553.924 53.885 555.312 53.5167 556.332 52.78C557.352 52.0433 558.174 50.7967 558.797 49.04C559.08 48.4733 559.392 48.0483 559.732 47.765C560.072 47.4817 560.554 47.34 561.177 47.34H571.972C572.539 47.34 573.049 47.5667 573.502 48.02C573.955 48.4167 574.154 48.8983 574.097 49.465C574.04 50.4283 573.757 51.5617 573.247 52.865C572.737 54.1117 571.944 55.4433 570.867 56.86C569.79 58.2767 568.374 59.6083 566.617 60.855C564.917 62.045 562.849 63.0083 560.412 63.745C557.975 64.4817 555.142 64.85 551.912 64.85ZM610.209 64C609.585 64 609.075 63.8017 608.679 63.405C608.282 63.0083 608.084 62.4983 608.084 61.875V49.805H600.944V49.38C594.937 49.38 590.347 48.0767 587.174 45.47C584 42.8067 582.414 39.2083 582.414 34.675C582.414 29.8017 584 26.1183 587.174 23.625C590.347 21.075 594.767 19.8 600.434 19.8H620.579C621.202 19.8 621.712 19.9983 622.109 20.395C622.505 20.7917 622.704 21.3017 622.704 21.925V61.875C622.704 62.4983 622.505 63.0083 622.109 63.405C621.712 63.8017 621.202 64 620.579 64H610.209ZM582.754 64C582.187 64 581.734 63.83 581.394 63.49C581.054 63.15 580.884 62.7533 580.884 62.3C580.884 62.13 580.912 61.96 580.969 61.79C581.082 61.5633 581.195 61.3367 581.309 61.11L590.404 46.15L602.814 48.275L594.909 62.725C594.682 63.065 594.399 63.3767 594.059 63.66C593.719 63.8867 593.322 64 592.869 64H582.754ZM600.944 40.03H608.339V29.575H601.284C599.187 29.575 597.629 29.9717 596.609 30.765C595.645 31.5583 595.164 32.8617 595.164 34.675C595.164 36.2617 595.617 37.565 596.524 38.585C597.487 39.5483 598.96 40.03 600.944 40.03ZM669.658 64.85C665.692 64.85 662.405 64.425 659.798 63.575C657.248 62.725 655.208 61.62 653.678 60.26C652.148 58.9 651.043 57.4833 650.363 56.01C649.74 54.48 649.343 53.12 649.173 51.93C649.117 51.4767 649.258 51.1083 649.598 50.825C649.938 50.5417 650.307 50.4 650.703 50.4H660.563C661.187 50.4 661.64 50.5133 661.923 50.74C662.263 50.9667 662.547 51.2783 662.773 51.675C663.283 52.8083 664.105 53.63 665.238 54.14C666.428 54.65 667.958 54.905 669.828 54.905C671.132 54.905 672.265 54.735 673.228 54.395C674.248 54.055 675.013 53.545 675.523 52.865C676.033 52.185 676.288 51.335 676.288 50.315C676.288 48.8983 675.863 47.8217 675.013 47.085C674.163 46.2917 672.69 45.895 670.593 45.895H665.833C665.323 45.895 664.898 45.725 664.558 45.385C664.218 44.9883 664.048 44.535 664.048 44.025V39.18C664.048 38.67 664.218 38.245 664.558 37.905C664.898 37.5083 665.323 37.31 665.833 37.31H670.423C672.18 37.31 673.455 36.9983 674.248 36.375C675.042 35.7517 675.438 34.7883 675.438 33.485C675.438 32.6917 675.24 31.955 674.843 31.275C674.447 30.595 673.823 30.0567 672.973 29.66C672.123 29.2067 670.962 28.98 669.488 28.98C667.392 28.98 665.89 29.2917 664.983 29.915C664.133 30.4817 663.425 31.3883 662.858 32.635C662.632 33.0317 662.348 33.3433 662.008 33.57C661.725 33.7967 661.272 33.91 660.648 33.91H651.128C650.675 33.91 650.307 33.7683 650.023 33.485C649.74 33.2017 649.598 32.8333 649.598 32.38C649.768 30.9067 650.193 29.405 650.873 27.875C651.61 26.2883 652.743 24.815 654.273 23.455C655.803 22.095 657.815 21.0183 660.308 20.225C662.802 19.375 665.918 18.95 669.658 18.95C674.475 18.95 678.3 19.545 681.133 20.735C684.023 21.8683 686.092 23.3983 687.338 25.325C688.585 27.195 689.208 29.2633 689.208 31.53C689.208 33.4567 688.812 35.2133 688.018 36.8C687.225 38.3867 685.808 39.69 683.768 40.71C686.318 41.6733 688.075 43.1467 689.038 45.13C690.002 47.1133 690.483 49.2383 690.483 51.505C690.483 54.225 689.633 56.5767 687.933 58.56C686.29 60.5433 683.91 62.1017 680.793 63.235C677.677 64.3117 673.965 64.85 669.658 64.85Z" fill="#282828"/>
</svg>
