<svg width="251" height="60" viewBox="0 0 251 60" fill="none" xmlns="http://www.w3.org/2000/svg">
<path d="M85.3906 7.09121C78.9758 7.37081 67.744 13.4268 67.744 31.1105C67.744 42.0929 75.2642 53.6375 81.5131 51.9688C81.9876 51.8421 82.3487 51.5697 82.6307 51.181C79.6221 49.5071 77.7211 46.9393 77.7211 43.4821C77.7211 39.0136 80.6854 38.1598 84.921 36.9399C86.4432 36.5014 88.1295 36.0157 89.9015 35.298C86.9494 33.6808 85.9089 31.1297 89.3139 29.1247C88.1455 25.965 85.9974 24.5913 84.2379 23.4661C82.6805 22.4702 81.4275 21.6689 81.4275 19.996C81.4275 16.1738 85.4581 10.8988 90.1892 9.10146C89.4293 7.75573 87.9661 6.97895 85.3906 7.09121Z" fill="#CC2929"/>
<path d="M93.4819 29.2513C96.8869 31.2563 96.9796 33.5594 94.0275 35.1766C94.299 35.2767 94.5849 35.3793 94.8821 35.4859C98.3646 36.7348 103.392 38.5378 104.731 43.5368C105.627 46.8826 102.898 49.8797 99.2252 51.687C99.4262 52.7591 99.8331 53.4985 100.657 53.7186C108.295 55.7581 119.855 44.8995 119.855 31.2628C119.855 17.6261 115.436 6.61162 107.003 6.96241C104.137 7.08163 101.963 8.26771 100.281 10.069C104.314 11.7805 107.945 14.8198 106.838 18.952C106.157 21.4936 103.9 22.2752 101.356 23.1558C98.4705 24.1549 95.2169 25.2814 93.4819 29.2513Z" fill="#CC2929"/>
<path d="M106.838 18.952C107.945 14.8198 104.314 11.7805 100.281 10.069C96.7283 13.8739 95.3715 20.4237 94.3278 25.4622C94.0351 26.8754 93.767 28.1698 93.4819 29.2513C95.2169 25.2814 98.4705 24.1549 101.356 23.1558C103.9 22.2752 106.157 21.4936 106.838 18.952Z" fill="#F33131"/>
<path d="M89.3139 29.1247C90.6457 28.5462 92.1674 28.7258 93.4819 29.2513C93.767 28.1698 94.0351 26.8754 94.3278 25.4622C95.3715 20.4237 96.7283 13.8739 100.281 10.069C97.8151 9.02259 95.199 8.47252 93.4237 8.47252C92.3353 8.47252 91.2448 8.70042 90.1892 9.10146C91.4878 11.4015 90.7321 15.3634 89.9642 19.3892C89.2841 22.9544 88.5945 26.5696 89.3139 29.1247Z" fill="#CC2929"/>
<path d="M90.1892 9.10146C85.4581 10.8988 81.4275 16.1738 81.4275 19.996C81.4275 21.6689 82.6805 22.4702 84.2379 23.4661C85.9974 24.5913 88.1455 25.965 89.3139 29.1247C88.5945 26.5696 89.2841 22.9544 89.9642 19.3892C90.7321 15.3634 91.4878 11.4015 90.1892 9.10146Z" fill="#F33131"/>
<path d="M77.7211 43.4821C77.7211 46.9393 79.6221 49.5071 82.6307 51.181C83.3245 50.2246 83.5402 48.564 83.7906 46.6356C84.2945 42.7559 84.9391 37.7921 89.9015 35.298C88.1295 36.0157 86.4432 36.5014 84.921 36.9399C80.6854 38.1598 77.7211 39.0136 77.7211 43.4821Z" fill="#F33131"/>
<path d="M89.9015 35.298C84.9391 37.7921 84.2945 42.7559 83.7906 46.6356C83.5402 48.564 83.3245 50.2246 82.6307 51.181C84.0208 51.9543 85.6472 52.5369 87.4319 52.9282C88.7076 53.2079 90.0166 53.3986 91.3219 53.4621C93.8372 53.5846 96.7463 52.9067 99.2252 51.687C99.0295 50.6435 99.0287 49.2847 99.0279 47.7828C99.0256 43.3567 99.0226 37.6871 94.0275 35.1766C92.7439 35.7795 91.203 35.9112 89.9015 35.298Z" fill="#CC2929"/>
<path d="M99.2252 51.687C102.898 49.8797 105.627 46.8826 104.731 43.5368C103.392 38.5378 98.3646 36.7348 94.8821 35.4859C94.5849 35.3793 94.299 35.2767 94.0275 35.1766C99.0226 37.6871 99.0256 43.3567 99.0279 47.7828C99.0287 49.2847 99.0295 50.6435 99.2252 51.687Z" fill="#F33131"/>
<path d="M94.0275 35.1766C96.9796 33.5594 96.8869 31.2563 93.4819 29.2513C92.1674 28.7258 90.6457 28.5462 89.3139 29.1247C85.9089 31.1297 86.9494 33.6808 89.9015 35.298C91.203 35.9112 92.7439 35.7795 94.0275 35.1766Z" fill="#282828"/>
<path d="M230.828 2.5735C230.196 2.01865 229.334 1.74123 228.242 1.74123H217.144C219.375 5.36515 222.146 9.02887 225.077 12.9048C235.594 26.8112 245.05 41.7422 241.259 60H249.104C249.621 60 250.052 59.8336 250.397 59.5006C250.799 59.1123 251 58.6684 251 58.169L250.914 57.6696L232.121 4.48771C231.891 3.76642 231.46 3.12834 230.828 2.5735Z" fill="#282828"/>
<path fill-rule="evenodd" clip-rule="evenodd" d="M46.6961 1.73907C45.134 1.73907 43.9345 2.48811 43.0977 3.9862L32.135 23.9606L21.1723 3.9862C20.3354 2.48811 19.1359 1.73907 17.5738 1.73907H2.25949C1.6458 1.73907 1.1158 1.96101 0.669479 2.40488C0.22316 2.84876 0 3.37587 0 3.9862V57.7507C0 58.361 0.223384 58.8882 0.669704 59.332C1.11602 59.7759 1.64603 59.9978 2.25971 59.9978H17.4067C18.0204 59.9978 18.5504 59.7759 18.9967 59.332C19.4348 58.8963 19.6579 58.3804 19.6659 57.7843L19.6661 57.7608L19.6662 57.7512V57.7507L19.6659 31.9504L25.7749 43.9351C26.3448 45.2574 27.9266 46.0157 29.2897 46.0157H34.9802C36.3433 46.0157 37.9252 45.2574 38.495 43.9351L44.604 31.9504V57.7507C44.604 58.361 44.8271 58.8882 45.2735 59.332C45.7198 59.7759 46.2498 59.9978 46.8635 59.9978H62.0104C62.6241 59.9978 63.1541 59.7759 63.6004 59.332C64.0468 58.8882 64.2699 58.361 64.2699 57.7507V34.9154C64.2699 43.5262 66.9031 49.8593 72.1694 53.9147C76.9213 57.5381 83.0675 59.5428 90.6082 59.9288C89.3054 57.6258 88.2138 55.3009 87.4319 52.9282C85.6472 52.5369 84.0208 51.9543 82.6307 51.181C82.3487 51.5697 81.9876 51.8421 81.5131 51.9688C75.2642 53.6375 67.744 42.0929 67.744 31.1105C67.744 13.4268 78.9758 7.37081 85.3906 7.09121C87.9661 6.97895 89.4293 7.75573 90.1892 9.10146C91.2448 8.70042 92.3353 8.47252 93.4237 8.47252C95.199 8.47252 97.8151 9.02259 100.281 10.069C101.963 8.26771 104.137 7.08163 107.003 6.96241C115.436 6.61162 119.855 17.6261 119.855 31.2628C119.855 44.8995 108.295 55.7581 100.657 53.7186C99.8331 53.4985 99.4262 52.7591 99.2252 51.687C96.7463 52.9067 93.8372 53.5846 91.3219 53.4621C92.2311 55.7361 93.3916 57.8993 94.6739 59.9826C102.877 59.79 109.48 57.7673 114.483 53.9147C119.801 49.8593 122.46 43.5818 122.46 35.0821L122.46 57.7529C122.46 58.3632 122.695 58.8903 123.164 59.3342C123.633 59.7781 124.19 60 124.835 60H161.064C169.154 60 175.309 58.5019 179.53 55.5057C181.999 53.7209 183.864 51.2197 184.891 48.3718L181.605 57.6696L181.519 58.169C181.519 58.6684 181.691 59.1123 182.036 59.5006C182.439 59.8336 182.898 60 183.416 60H199.708C201.547 60 202.84 59.0568 203.588 57.1703L205.743 51.3444H226.777L228.932 57.1703C229.679 59.0568 230.972 60 232.811 60H237.704C241.645 42.4697 232.284 28.1887 222.198 14.8596C218.899 10.5 215.619 6.1656 213.108 1.74123H204.277C203.185 1.74123 202.323 2.01865 201.691 2.5735C201.059 3.12834 200.628 3.76642 200.398 4.48771L184.956 48.1876C185.595 46.2581 185.862 44.0923 185.862 41.6901C185.862 38.8049 185.041 36.2526 183.399 34.0332C181.758 31.7584 179.794 30.288 177.508 29.6222C179.149 29.1229 180.732 27.9299 182.256 26.0434C183.781 24.157 184.543 21.8821 184.543 19.2188C184.543 14.072 182.894 9.1433 178.563 6.06903C174.635 3.18383 168.509 1.74123 160.185 1.74123L124.694 1.74123C124.088 1.74123 123.564 1.97717 123.123 2.44909C122.681 2.92101 122.46 3.48143 122.46 4.13032L122.46 24.9157C122.46 19.3048 121.183 14.6384 118.628 10.9163C116.073 7.19419 112.605 4.44428 108.226 2.66657C103.898 0.888858 98.9443 0 93.3651 0C87.7859 0 82.8064 0.888858 78.4264 2.66657C74.0465 4.44428 70.5791 7.22196 68.0241 10.9996C65.5213 14.7217 64.2699 19.4159 64.2699 25.0824V3.9862C64.2699 3.37587 64.0468 2.84876 63.6004 2.40488C63.1541 1.96101 62.6241 1.73907 62.0104 1.73907H46.6961ZM210.139 35.1152L216.26 17.804L222.38 35.1152H210.139ZM159.745 17.1382C160.39 17.8595 160.712 18.7195 160.712 19.7182C160.712 20.7169 160.39 21.6324 159.745 22.4647C159.159 23.2415 158.279 23.6299 157.107 23.6299H145.323V16.0562H157.107C158.279 16.0562 159.159 16.4169 159.745 17.1382ZM161.064 44.4366C160.419 45.2688 159.422 45.685 158.074 45.685H145.323V37.5288H158.074C159.305 37.5288 160.272 37.9172 160.976 38.6939C161.734 39.467 162.119 40.4445 162.119 41.5236C162.119 42.5779 161.767 43.5488 161.064 44.4366Z" fill="#282828"/>
</svg>
